<svg xmlns="http://www.w3.org/2000/svg" xmlns:xlink="http://www.w3.org/1999/xlink" zoomAndPan="magnify" preserveAspectRatio="xMidYMid meet" version="1.0" viewBox="25.1 358.72 744.26 121.67"><defs><g/></defs><g fill="#ff5055" fill-opacity="0.302"><g transform="translate(38.361603, 470.888932)"><g><path d="M 9.625 -3.546875 L 9.375 -16.46875 L 9.625 -19 L 9.25 -21.28125 L 9.625 -23.8125 L 9.375 -26.59375 L 9.75 -32.546875 L 9.5 -35.453125 L 9.75 -39.390625 L 9.375 -41.796875 L 9.375 -49.140625 L 9.625 -51.796875 L 9.125 -59.515625 L 9.625 -62.046875 L 9.375 -64.203125 L 9.75 -67 L 9.125 -74.59375 L 9.5 -77 L 9.25 -79.78125 L 9.25 -82.1875 L 9.625 -84.96875 L 11.015625 -87.125 L 14.9375 -88.265625 L 17.34375 -88.515625 L 19.875 -88.265625 L 27.359375 -88.515625 L 31.28125 -87.25 L 32.796875 -84.59375 L 32.671875 -82.4375 L 33.046875 -69.90625 L 32.796875 -67.625 L 32.796875 -60.03125 L 33.8125 -57.625 L 36.46875 -56.484375 L 48.75 -56.609375 L 51.03125 -56.359375 L 56.109375 -56.359375 L 58.25 -57.625 L 59.640625 -60.15625 L 59.640625 -67.5 L 60.15625 -69.65625 L 59.90625 -83.453125 L 60.921875 -87.125 L 64.71875 -88.265625 L 67.25 -88.265625 L 71.296875 -88.640625 L 77.75 -88.515625 L 81.6875 -87.25 L 82.953125 -84.71875 L 83.203125 -82.1875 L 82.703125 -79.65625 L 82.953125 -77.25 L 83.453125 -74.84375 L 82.828125 -64.328125 L 83.203125 -51.921875 L 82.953125 -49.140625 L 83.078125 -44.328125 L 82.703125 -41.671875 L 82.703125 -39.125 L 82.953125 -36.46875 L 82.828125 -33.9375 L 83.328125 -29.125 L 83.328125 -8.734375 L 82.828125 -3.546875 L 81.4375 -1.140625 L 78.890625 0.25 L 70.15625 0.25 L 66.359375 -0.125 L 63.828125 0.125 L 61.296875 -1.140625 L 60.03125 -3.796875 L 59.640625 -8.734375 L 60.15625 -12.53125 L 59.640625 -21.53125 L 60.03125 -23.9375 L 59.640625 -31.65625 L 58.375 -34.1875 L 56.109375 -35.453125 L 53.703125 -35.453125 L 51.15625 -35.71875 L 48.625 -35.453125 L 41.15625 -35.453125 L 38.875 -35.71875 L 36.21875 -35.71875 L 33.6875 -34.1875 L 32.421875 -31.53125 L 32.796875 -21.53125 L 32.546875 -18.875 L 32.671875 -16.078125 L 32.421875 -13.671875 L 32.671875 -11.140625 L 32.421875 -8.859375 L 32.796875 -6.078125 L 32.671875 -3.546875 L 31.65625 -1.015625 L 28.875 0.125 L 26.21875 0.375 L 23.5625 0 L 19.875 -0.125 L 15.953125 0.25 L 13.546875 0.25 L 10.640625 -0.890625 Z M 69.265625 4.3125 L 72.0625 3.046875 L 74.59375 3.296875 L 79.53125 3.296875 L 81.9375 3.046875 L 85.109375 1.90625 L 86.25 -0.640625 L 86.375 -3.046875 L 85.859375 -5.953125 L 86.375 -8.109375 L 85.984375 -15.828125 L 86.375 -20.765625 L 85.984375 -46.484375 L 86.375 -49.015625 L 86.25 -53.828125 L 86.5 -56.234375 L 85.984375 -58.765625 L 86.5 -69.015625 L 85.859375 -71.546875 L 85.984375 -75.21875 L 87.375 -79.15625 L 89.921875 -79.15625 L 91.5625 -76.625 L 91.1875 -74.078125 L 91.046875 -71.421875 L 91.5625 -60.28125 L 91.046875 -53.953125 L 91.3125 -51.296875 L 91.3125 -48.890625 L 91.046875 -46.09375 L 91.4375 -43.9375 L 91.046875 -41.15625 L 90.921875 -36.21875 L 91.4375 -33.6875 L 91.046875 -23.296875 L 91.5625 -20.890625 L 91.046875 -12.03125 L 91.3125 -9.5 L 91.3125 -5.703125 L 91.046875 -2.90625 L 91.4375 -0.640625 L 91.3125 4.6875 L 89.53125 7.21875 L 87.375 8.234375 L 84.59375 8.484375 L 81.171875 8.109375 L 77.375 8.359375 L 73.578125 8.234375 L 69.265625 7.09375 Z M 35.84375 -63.453125 L 35.84375 -66.234375 L 35.59375 -68.640625 L 35.71875 -71.296875 L 35.59375 -73.828125 L 35.96875 -76.359375 L 37.109375 -79.03125 L 39.890625 -79.03125 L 40.78125 -76.484375 L 40.90625 -71.421875 L 40.53125 -68.765625 L 41.03125 -63.453125 L 39.640625 -60.65625 L 37.234375 -60.78125 Z M 19.25 4.4375 L 22.796875 3.046875 L 26.84375 3.296875 L 30.640625 3.171875 L 34.578125 2.03125 L 35.84375 -0.640625 L 35.96875 -5.703125 L 35.59375 -10.765625 L 36.09375 -13.171875 L 35.59375 -18.609375 L 35.84375 -20.890625 L 35.84375 -28.75 L 36.984375 -31.15625 L 39.640625 -32.296875 L 47.234375 -32.546875 L 50.015625 -32.296875 L 52.5625 -32.421875 L 55.21875 -31.15625 L 55.34375 -28.625 L 51.421875 -27.234375 L 44.953125 -27.484375 L 42.046875 -26.21875 L 40.90625 -23.6875 L 40.65625 -20.890625 L 41.15625 -18.75 L 40.78125 -13.546875 L 41.03125 -9.75 L 40.78125 -3.296875 L 41.28125 0.640625 L 40.90625 4.171875 L 39.265625 6.96875 L 37.109375 8.359375 L 21.78125 8.234375 L 19.125 7.09375 Z M 19.25 4.4375 "/></g></g></g><g fill="#ff5055" fill-opacity="0.302"><g transform="translate(131.065459, 470.888932)"><g><path d="M 1.640625 -3.421875 L 3.171875 -8.734375 L 4.3125 -11.265625 L 5.828125 -13.296875 L 9.5 -22.546875 L 13.046875 -29.125 L 13.9375 -31.65625 L 15.0625 -33.6875 L 15.828125 -36.34375 L 17.609375 -39.640625 L 18.484375 -42.046875 L 20.390625 -45.34375 L 22.421875 -49.890625 L 23.8125 -52.171875 L 24.4375 -54.328125 L 31.53125 -70.28125 L 32.921875 -72.5625 L 38.375 -83.96875 L 39.125 -86.25 L 41.53125 -88.515625 L 45.59375 -89.78125 L 49.890625 -88.640625 L 52.171875 -86.25 L 52.9375 -83.84375 L 54.078125 -81.9375 L 56.109375 -77.125 L 58.640625 -72.4375 L 60.53125 -68 L 61.171875 -65.984375 L 63.453125 -61.171875 L 64.203125 -58.765625 L 66.734375 -54.328125 L 67.375 -51.921875 L 68.640625 -49.765625 L 69.65625 -47.609375 L 71.046875 -45.34375 L 71.8125 -42.796875 L 72.9375 -40.90625 L 73.828125 -38.375 L 74.96875 -36.21875 L 75.984375 -33.6875 L 77.375 -31.65625 L 79.15625 -26.96875 L 80.421875 -24.828125 L 81.296875 -22.421875 L 83.453125 -17.859375 L 84.21875 -15.453125 L 85.484375 -13.546875 L 86.25 -11.015625 L 87.890625 -8.859375 L 88.78125 -6.578125 L 89.53125 -3.421875 L 89.03125 -0.765625 L 86.75 0 L 78.890625 0.25 L 74.46875 -0.125 L 72.1875 0.125 L 68.890625 -1.140625 L 66.734375 -3.171875 L 65.34375 -5.453125 L 64.71875 -7.71875 L 62.046875 -9.75 L 57.875 -11.140625 L 51.921875 -10.890625 L 49.265625 -11.140625 L 46.984375 -11.140625 L 44.078125 -10.765625 L 41.40625 -11.140625 L 34.3125 -11.015625 L 31.78125 -11.265625 L 28.75 -10 L 26.59375 -7.59375 L 24.4375 -3.296875 L 22.15625 -1.015625 L 19.25 0.25 L 15.953125 -0.125 L 4.8125 -0.125 L 2.28125 -0.765625 Z M 61.921875 -80.296875 L 64.203125 -78.140625 L 66.234375 -73.328125 L 67.5 -71.296875 L 68.390625 -68.640625 L 70.40625 -64.203125 L 71.9375 -61.921875 L 72.6875 -59.78125 L 74.078125 -57.5 L 74.71875 -55.09375 L 78.140625 -48.5 L 79.90625 -43.5625 L 81.171875 -41.28125 L 81.9375 -39.125 L 83.328125 -37.109375 L 84.21875 -34.578125 L 87.515625 -27.609375 L 89.03125 -25.578125 L 91.6875 -18.359375 L 95.359375 -11.90625 L 96 -9.5 L 97.265625 -7.21875 L 99.03125 0 L 99.15625 3.421875 L 97.265625 7.34375 L 93.453125 8.484375 L 91.046875 8.484375 L 88.390625 8.234375 L 77.125 8.234375 L 73.828125 7.21875 L 72.9375 4.4375 L 74.59375 3.296875 L 84.84375 3.421875 L 87.515625 3.171875 L 89.921875 3.296875 L 92.578125 2.03125 L 93.59375 0 L 92.0625 -6.578125 L 90.796875 -9.125 L 90.171875 -11.265625 L 88.640625 -13.671875 L 88.140625 -15.953125 L 85.484375 -20.515625 L 84.71875 -23.046875 L 79.40625 -34.453125 L 78.015625 -36.46875 L 75.21875 -43.6875 L 74.078125 -45.84375 L 73.203125 -48 L 71.8125 -50.40625 L 71.046875 -52.9375 L 70.03125 -54.96875 L 68.640625 -56.984375 L 67.375 -59.390625 L 66.859375 -61.921875 L 59.015625 -77.890625 L 59.265625 -80.421875 Z M 40.78125 -31.28125 L 50.65625 -31.40625 L 52.8125 -32.421875 L 53.0625 -34.703125 L 52.171875 -36.984375 L 50.90625 -39.515625 L 50.40625 -41.53125 L 49.015625 -43.6875 L 47.359375 -48.625 L 45.84375 -49.640625 L 44.203125 -48.375 L 43.0625 -46.34375 L 37.984375 -34.828125 L 38.375 -32.296875 Z M 42.296875 -36.59375 L 42.9375 -39.265625 L 44.203125 -41.671875 L 46.484375 -42.671875 L 47.609375 -39 L 45.71875 -34.703125 L 42.9375 -34.0625 Z M 6.328125 5.703125 L 7.859375 3.921875 L 10.515625 3.296875 L 13.421875 3.421875 L 15.703125 3.171875 L 20.640625 3.421875 L 24.0625 2.28125 L 26.21875 0.125 L 28.234375 -4.5625 L 30.640625 -6.84375 L 33.6875 -7.859375 L 36.46875 -7.984375 L 41.671875 -7.71875 L 44.453125 -7.984375 L 47.875 -7.71875 L 54.453125 -7.984375 L 56.859375 -7.859375 L 60.28125 -6.71875 L 61.171875 -3.921875 L 59.265625 -2.90625 L 54.328125 -2.90625 L 52.171875 -2.65625 L 49.390625 -3.046875 L 36.71875 -2.90625 L 34.0625 -1.515625 L 31.53125 0.375 L 29.375 5.1875 L 27.234375 7.21875 L 24.1875 8.484375 L 21.53125 8.609375 L 18.359375 8.234375 L 9.5 8.359375 L 7.21875 7.71875 Z M 6.328125 5.703125 "/></g></g></g><g fill="#ff5055" fill-opacity="0.302"><g transform="translate(223.009439, 470.888932)"><g><path d="M 9.75 -4.046875 L 9.375 -13.9375 L 9.625 -16.59375 L 9.125 -23.9375 L 9.5 -29.125 L 9.125 -31.90625 L 9.25 -36.71875 L 9.5 -39.390625 L 9.5 -45.71875 L 9.125 -49.390625 L 9.5 -84.84375 L 10.515625 -87.515625 L 12.921875 -88.640625 L 15.703125 -88.515625 L 18.109375 -88.90625 L 23.296875 -88.390625 L 25.703125 -88.78125 L 33.3125 -88.515625 L 35.453125 -88.78125 L 38.25 -88.515625 L 40.78125 -88.78125 L 43.5625 -88.640625 L 47.234375 -88.78125 L 50.40625 -88.515625 L 60.921875 -86.375 L 65.34375 -84.09375 L 71.671875 -79.28125 L 72.8125 -77.375 L 74.59375 -75.484375 L 78.015625 -68.515625 L 78.640625 -65.984375 L 79.03125 -63.578125 L 79.65625 -61.171875 L 79.53125 -51.15625 L 78.140625 -46.34375 L 77.25 -44.203125 L 75.859375 -41.921875 L 74.96875 -39.515625 L 73.453125 -37.359375 L 69.90625 -33.9375 L 68.515625 -31.28125 L 68.890625 -28.234375 L 72.6875 -21.65625 L 74.34375 -19.625 L 75.609375 -17.34375 L 77.125 -15.0625 L 78.265625 -12.921875 L 82.3125 -6.71875 L 83.96875 -3.546875 L 83.453125 -0.890625 L 80.796875 -0.25 L 78.015625 0 L 72.9375 0 L 70.40625 -0.25 L 67.625 0 L 63.0625 -0.25 L 59.90625 -1.015625 L 57.375 -3.296875 L 55.84375 -5.3125 L 54.703125 -7.46875 L 53.0625 -9.875 L 49.515625 -16.203125 L 48.625 -18.609375 L 45.34375 -23.046875 L 43.3125 -25.203125 L 40.140625 -26.21875 L 37.859375 -26.09375 L 35.59375 -26.09375 L 33.046875 -24.828125 L 31.90625 -22.28125 L 32.171875 -14.4375 L 31.78125 -8.984375 L 32.296875 -6.328125 L 32.046875 -3.671875 L 31.15625 -1.265625 L 27.234375 0 L 23.421875 0 L 20.765625 -0.25 L 15.578125 0.125 L 13.171875 0 L 10.640625 -1.265625 Z M 35.59375 -46.609375 L 38.375 -46.609375 L 40.90625 -46.21875 L 50.78125 -47.109375 L 52.6875 -48 L 54.203125 -49.515625 L 55.59375 -51.671875 L 56.609375 -54.203125 L 56.984375 -57.625 L 56.734375 -61.296875 L 55.84375 -63.3125 L 54.578125 -65.21875 L 50.65625 -67.625 L 44.828125 -68.390625 L 37.859375 -68.515625 L 35.84375 -68.390625 L 33.3125 -67.125 L 31.78125 -64.59375 L 32.171875 -50.40625 L 33.4375 -47.75 Z M 83.578125 -65.71875 L 84.59375 -63.453125 L 85.484375 -61.296875 L 86.625 -59.140625 L 87.765625 -54.078125 L 87.25 -50.40625 L 87.125 -46.734375 L 85.984375 -41.671875 L 80.796875 -32.796875 L 80.03125 -29.890625 L 80.671875 -26.84375 L 84.09375 -19.875 L 85.734375 -17.859375 L 86.75 -15.453125 L 89.53125 -11.015625 L 91.6875 -5.3125 L 92.578125 -1.265625 L 92.1875 2.90625 L 89.53125 6.71875 L 86.375 7.984375 L 83.578125 8.109375 L 81.296875 7.859375 L 77.5 8.234375 L 72.0625 7.984375 L 67.625 6.71875 L 66.484375 4.4375 L 68.125 3.046875 L 83.453125 3.171875 L 85.859375 1.90625 L 87.125 -0.890625 L 87 -4.4375 L 85.609375 -7.984375 L 84.46875 -9.875 L 82.953125 -12.15625 L 81.9375 -14.4375 L 77.5 -20.765625 L 76.484375 -23.046875 L 75.484375 -25.078125 L 73.953125 -27.234375 L 73.203125 -30.140625 L 74.46875 -33.1875 L 76.359375 -34.953125 L 78.015625 -36.859375 L 80.296875 -41.03125 L 82.5625 -48.125 L 83.078125 -50.65625 L 83.203125 -60.28125 L 82.828125 -62.8125 L 82.0625 -65.09375 L 82.5625 -66.609375 Z M 35.328125 -53.5625 L 35.328125 -61.546875 L 36.46875 -63.828125 L 39.125 -65.34375 L 46.484375 -65.21875 L 50.15625 -64.328125 L 52.421875 -62.9375 L 52.8125 -60.921875 L 50.90625 -60.28125 L 44.703125 -60.40625 L 41.671875 -59.015625 L 39.265625 -51.03125 L 36.46875 -51.296875 Z M 18.875 4.3125 L 21.40625 3.046875 L 31.65625 3.171875 L 34.0625 1.765625 L 35.328125 -2.15625 L 35.078125 -6.078125 L 35.203125 -8.734375 L 35.078125 -11.140625 L 35.453125 -13.9375 L 35.328125 -17.734375 L 36.34375 -21.78125 L 38.5 -22.921875 L 41.28125 -21.53125 L 42.796875 -19.125 L 40.390625 -14.3125 L 40.015625 4.3125 L 39 6.71875 L 35.078125 7.984375 L 21.40625 8.109375 L 18.875 6.84375 Z M 18.875 4.3125 "/></g></g></g><g fill="#ff5055" fill-opacity="0.302"><g transform="translate(310.774141, 470.888932)"><g><path d="M 9.75 -4.046875 L 9.375 -13.9375 L 9.625 -16.59375 L 9.125 -23.9375 L 9.5 -29.125 L 9.125 -31.90625 L 9.25 -36.71875 L 9.5 -39.390625 L 9.5 -45.71875 L 9.125 -49.390625 L 9.5 -84.84375 L 10.515625 -87.515625 L 12.921875 -88.640625 L 15.703125 -88.515625 L 18.109375 -88.90625 L 23.296875 -88.390625 L 25.703125 -88.78125 L 33.3125 -88.515625 L 35.453125 -88.78125 L 38.25 -88.515625 L 40.78125 -88.78125 L 43.5625 -88.640625 L 47.234375 -88.78125 L 50.40625 -88.515625 L 60.921875 -86.375 L 65.34375 -84.09375 L 71.671875 -79.28125 L 72.8125 -77.375 L 74.59375 -75.484375 L 78.015625 -68.515625 L 78.640625 -65.984375 L 79.03125 -63.578125 L 79.65625 -61.171875 L 79.53125 -51.15625 L 78.140625 -46.34375 L 77.25 -44.203125 L 75.859375 -41.921875 L 74.96875 -39.515625 L 73.453125 -37.359375 L 69.90625 -33.9375 L 68.515625 -31.28125 L 68.890625 -28.234375 L 72.6875 -21.65625 L 74.34375 -19.625 L 75.609375 -17.34375 L 77.125 -15.0625 L 78.265625 -12.921875 L 82.3125 -6.71875 L 83.96875 -3.546875 L 83.453125 -0.890625 L 80.796875 -0.25 L 78.015625 0 L 72.9375 0 L 70.40625 -0.25 L 67.625 0 L 63.0625 -0.25 L 59.90625 -1.015625 L 57.375 -3.296875 L 55.84375 -5.3125 L 54.703125 -7.46875 L 53.0625 -9.875 L 49.515625 -16.203125 L 48.625 -18.609375 L 45.34375 -23.046875 L 43.3125 -25.203125 L 40.140625 -26.21875 L 37.859375 -26.09375 L 35.59375 -26.09375 L 33.046875 -24.828125 L 31.90625 -22.28125 L 32.171875 -14.4375 L 31.78125 -8.984375 L 32.296875 -6.328125 L 32.046875 -3.671875 L 31.15625 -1.265625 L 27.234375 0 L 23.421875 0 L 20.765625 -0.25 L 15.578125 0.125 L 13.171875 0 L 10.640625 -1.265625 Z M 35.59375 -46.609375 L 38.375 -46.609375 L 40.90625 -46.21875 L 50.78125 -47.109375 L 52.6875 -48 L 54.203125 -49.515625 L 55.59375 -51.671875 L 56.609375 -54.203125 L 56.984375 -57.625 L 56.734375 -61.296875 L 55.84375 -63.3125 L 54.578125 -65.21875 L 50.65625 -67.625 L 44.828125 -68.390625 L 37.859375 -68.515625 L 35.84375 -68.390625 L 33.3125 -67.125 L 31.78125 -64.59375 L 32.171875 -50.40625 L 33.4375 -47.75 Z M 83.578125 -65.71875 L 84.59375 -63.453125 L 85.484375 -61.296875 L 86.625 -59.140625 L 87.765625 -54.078125 L 87.25 -50.40625 L 87.125 -46.734375 L 85.984375 -41.671875 L 80.796875 -32.796875 L 80.03125 -29.890625 L 80.671875 -26.84375 L 84.09375 -19.875 L 85.734375 -17.859375 L 86.75 -15.453125 L 89.53125 -11.015625 L 91.6875 -5.3125 L 92.578125 -1.265625 L 92.1875 2.90625 L 89.53125 6.71875 L 86.375 7.984375 L 83.578125 8.109375 L 81.296875 7.859375 L 77.5 8.234375 L 72.0625 7.984375 L 67.625 6.71875 L 66.484375 4.4375 L 68.125 3.046875 L 83.453125 3.171875 L 85.859375 1.90625 L 87.125 -0.890625 L 87 -4.4375 L 85.609375 -7.984375 L 84.46875 -9.875 L 82.953125 -12.15625 L 81.9375 -14.4375 L 77.5 -20.765625 L 76.484375 -23.046875 L 75.484375 -25.078125 L 73.953125 -27.234375 L 73.203125 -30.140625 L 74.46875 -33.1875 L 76.359375 -34.953125 L 78.015625 -36.859375 L 80.296875 -41.03125 L 82.5625 -48.125 L 83.078125 -50.65625 L 83.203125 -60.28125 L 82.828125 -62.8125 L 82.0625 -65.09375 L 82.5625 -66.609375 Z M 35.328125 -53.5625 L 35.328125 -61.546875 L 36.46875 -63.828125 L 39.125 -65.34375 L 46.484375 -65.21875 L 50.15625 -64.328125 L 52.421875 -62.9375 L 52.8125 -60.921875 L 50.90625 -60.28125 L 44.703125 -60.40625 L 41.671875 -59.015625 L 39.265625 -51.03125 L 36.46875 -51.296875 Z M 18.875 4.3125 L 21.40625 3.046875 L 31.65625 3.171875 L 34.0625 1.765625 L 35.328125 -2.15625 L 35.078125 -6.078125 L 35.203125 -8.734375 L 35.078125 -11.140625 L 35.453125 -13.9375 L 35.328125 -17.734375 L 36.34375 -21.78125 L 38.5 -22.921875 L 41.28125 -21.53125 L 42.796875 -19.125 L 40.390625 -14.3125 L 40.015625 4.3125 L 39 6.71875 L 35.078125 7.984375 L 21.40625 8.109375 L 18.875 6.84375 Z M 18.875 4.3125 "/></g></g></g><g fill="#ff5055" fill-opacity="0.302"><g transform="translate(398.538854, 470.888932)"><g><path d="M 29.125 -3.546875 L 29.375 -6.203125 L 28.75 -11.390625 L 28.875 -16.203125 L 29.125 -18.484375 L 29 -20.890625 L 28.75 -23.421875 L 28.875 -33.4375 L 28.234375 -37.109375 L 27.234375 -40.390625 L 15.953125 -58.125 L 14.9375 -60.28125 L 1.265625 -81.9375 L 0 -84.96875 L 0.25 -87.765625 L 3.046875 -88.515625 L 19.75 -88.78125 L 22.921875 -87.375 L 25.703125 -85.359375 L 26.71875 -82.828125 L 28.109375 -80.671875 L 34.453125 -69.53125 L 35.203125 -67 L 36.34375 -64.71875 L 39.265625 -60.15625 L 41.03125 -60.40625 L 45.203125 -67.25 L 47.109375 -71.8125 L 50.015625 -75.984375 L 50.78125 -78.390625 L 52.421875 -80.796875 L 54.578125 -85.109375 L 57.234375 -87.515625 L 60.40625 -88.78125 L 62.8125 -88.515625 L 67.625 -88.515625 L 70.28125 -88.90625 L 75.21875 -88.515625 L 77.75 -88.90625 L 80.15625 -87.890625 L 80.546875 -84.84375 L 78.765625 -81.8125 L 77.890625 -79.53125 L 76.359375 -77.625 L 61.796875 -53.5625 L 58.640625 -49.390625 L 57.234375 -47.234375 L 56.234375 -44.828125 L 51.796875 -37.109375 L 51.15625 -33.4375 L 51.671875 -31.15625 L 51.296875 -23.8125 L 51.671875 -21.15625 L 51.03125 -13.421875 L 51.15625 -11.140625 L 51.03125 -8.734375 L 51.296875 -6.078125 L 51.296875 -3.921875 L 50.015625 -1.390625 L 46.21875 -0.125 L 42.671875 0 L 40.015625 -0.125 L 37.484375 0.125 L 32.921875 -0.125 L 30.515625 -1.390625 Z M 38.375 -68.125 L 33.3125 -77.625 L 33.8125 -79.65625 L 36.71875 -79.78125 L 39.515625 -77.625 L 40.390625 -75.609375 L 41.671875 -73.703125 L 42.296875 -70.671875 L 41.796875 -67.75 L 40.140625 -66.734375 Z M 38.625 4.171875 L 42.046875 3.046875 L 49.515625 3.296875 L 53.1875 1.640625 L 54.453125 -1.765625 L 54.328125 -5.3125 L 54.828125 -7.859375 L 54.453125 -12.921875 L 54.703125 -15.453125 L 54.453125 -17.734375 L 54.578125 -22.796875 L 54.328125 -25.078125 L 54.578125 -27.609375 L 54.078125 -29.890625 L 54.203125 -32.671875 L 56.484375 -39.890625 L 59.640625 -43.8125 L 68.640625 -59.265625 L 70.40625 -61.421875 L 72.5625 -65.984375 L 74.46875 -68.125 L 75.734375 -70.03125 L 77.890625 -74.59375 L 79.53125 -77 L 81.5625 -79.03125 L 83.96875 -79.03125 L 84.34375 -76.359375 L 83.203125 -73.578125 L 82.0625 -71.296875 L 80.546875 -69.140625 L 79.65625 -67.125 L 77.890625 -65.09375 L 76.625 -62.5625 L 75.859375 -60.53125 L 74.078125 -58.515625 L 72.8125 -56.359375 L 71.9375 -54.328125 L 68.390625 -48.75 L 66.609375 -45.46875 L 65.34375 -43.6875 L 64.328125 -41.40625 L 62.8125 -39.390625 L 61.671875 -37.109375 L 60.28125 -33.5625 L 59.640625 -30.015625 L 59.515625 -25.078125 L 59.78125 -20.140625 L 59.515625 -17.859375 L 59.265625 -0.375 L 59.640625 4.5625 L 58.375 6.96875 L 55.84375 8.234375 L 41.03125 8.109375 L 38.25 6.96875 Z M 38.625 4.171875 "/></g></g></g><g fill="#ff5055" fill-opacity="0.302"><g transform="translate(479.084817, 470.888932)"><g/></g></g><g fill="#ff5055" fill-opacity="0.302"><g transform="translate(513.405509, 470.888932)"><g><path d="M 9.5 -3.921875 L 9.75 -8.734375 L 9.375 -18.875 L 9.625 -21.40625 L 9.375 -31.53125 L 9.75 -36.46875 L 9.375 -39.125 L 9.75 -41.53125 L 9.375 -46.984375 L 9.75 -51.796875 L 9.25 -61.921875 L 9.625 -64.453125 L 9.25 -67 L 9.625 -69.78125 L 9.375 -74.59375 L 9.5 -77.125 L 9.25 -79.65625 L 9.25 -84.84375 L 11.140625 -87.25 L 13.421875 -88.640625 L 16.078125 -88.515625 L 18.359375 -88.640625 L 20.890625 -88.390625 L 29 -88.640625 L 31.53125 -88.390625 L 49.515625 -88.265625 L 54.703125 -87.25 L 61.671875 -84.96875 L 64.203125 -83.703125 L 68.890625 -80.796875 L 72.4375 -77.375 L 74.59375 -75.734375 L 77.890625 -71.8125 L 78.890625 -69.65625 L 81.8125 -65.34375 L 83.703125 -60.28125 L 84.34375 -58 L 84.59375 -55.34375 L 86.5 -48.125 L 85.984375 -40.015625 L 86.109375 -37.859375 L 85.484375 -35.203125 L 85.109375 -32.546875 L 84.21875 -30.265625 L 83.703125 -27.734375 L 82.4375 -25.328125 L 81.8125 -22.921875 L 77.890625 -16.59375 L 72.8125 -10.765625 L 62.046875 -3.546875 L 54.703125 -1.265625 L 46.609375 -0.125 L 23.8125 0 L 21.15625 0.375 L 18.609375 0.375 L 15.953125 0 L 13.046875 0 L 11.015625 -1.140625 Z M 36.34375 -20.390625 L 46.859375 -20.890625 L 51.421875 -22.15625 L 53.953125 -23.421875 L 55.96875 -24.6875 L 57.5 -26.71875 L 59.140625 -28.5 L 60.78125 -30.78125 L 62.6875 -35.328125 L 63.453125 -37.734375 L 64.078125 -43.9375 L 63.703125 -47.875 L 62.1875 -55.34375 L 60.53125 -57.375 L 59.140625 -59.78125 L 55.96875 -63.3125 L 51.671875 -66.109375 L 46.609375 -67.625 L 42.796875 -67.875 L 40.140625 -67.75 L 37.484375 -67.875 L 33.8125 -66.484375 L 32.296875 -64.203125 L 32.296875 -31.65625 L 31.90625 -29.125 L 32.421875 -26.84375 L 32.171875 -24.3125 L 33.3125 -21.53125 Z M 51.15625 -59.78125 L 45.84375 -59.515625 L 41.796875 -58.375 L 40.140625 -55.84375 L 40.53125 -50.65625 L 40.390625 -45.34375 L 40.65625 -42.796875 L 40.65625 -37.734375 L 40.265625 -35.453125 L 40.390625 -30.015625 L 40.140625 -27.609375 L 38.875 -24.828125 L 36.46875 -24.953125 L 35.59375 -28.875 L 35.078125 -32.671875 L 35.453125 -58.125 L 35.203125 -60.65625 L 36.859375 -63.453125 L 39.765625 -64.59375 L 45.71875 -64.59375 L 50.015625 -63.453125 L 52.8125 -61.921875 L 53.703125 -60.28125 Z M 90.296875 -55.34375 L 91.8125 -50.53125 L 92.328125 -47.75 L 93.078125 -45.34375 L 93.328125 -31.90625 L 92.578125 -27.09375 L 91.5625 -24.4375 L 91.4375 -22.15625 L 90.046875 -20.015625 L 89.03125 -17.734375 L 88.390625 -15.328125 L 85.234375 -11.265625 L 83.96875 -9.125 L 80.546875 -4.9375 L 78.765625 -3.421875 L 70.796875 2.28125 L 63.578125 5.703125 L 61.171875 6.203125 L 56.234375 7.71875 L 31.03125 8.609375 L 28.75 8.359375 L 26.59375 8.609375 L 24.0625 8.359375 L 21.28125 8.609375 L 19 6.96875 L 19.25 4.5625 L 23.296875 3.171875 L 38.375 3.046875 L 42.296875 3.421875 L 55.21875 2.65625 L 59.90625 1.390625 L 61.921875 0.375 L 64.453125 -0.375 L 68.890625 -2.65625 L 76.875 -8.859375 L 78.390625 -11.015625 L 79.90625 -12.65625 L 81.046875 -14.6875 L 84.09375 -19 L 85.359375 -21.53125 L 86.625 -24.828125 L 88.265625 -30.90625 L 88.515625 -33.3125 L 89.28125 -35.71875 L 89.40625 -43.1875 L 88.78125 -48.25 L 89.03125 -53.0625 L 88.515625 -55.21875 L 89.03125 -56.734375 Z M 90.296875 -55.34375 "/></g></g></g><g fill="#ff5055" fill-opacity="0.302"><g transform="translate(605.476152, 470.888932)"><g><path d="M 9.125 -3.671875 L 9.625 -6.203125 L 9.75 -8.734375 L 9.5 -13.671875 L 9.5 -16.203125 L 9.25 -19.125 L 9.625 -21.40625 L 9.5 -23.8125 L 9.75 -26.59375 L 9.375 -29.25 L 9.625 -34.3125 L 9.25 -39.265625 L 9.625 -41.921875 L 9.625 -64.59375 L 9.375 -66.859375 L 9.625 -69.53125 L 9.125 -75.984375 L 9.625 -79.65625 L 9.375 -84.71875 L 10.640625 -87.515625 L 14.3125 -88.390625 L 30.90625 -88.78125 L 33.1875 -88.515625 L 38.125 -88.640625 L 40.65625 -88.390625 L 46.21875 -88.640625 L 48.75 -88.265625 L 51.03125 -88.515625 L 61.171875 -88.390625 L 63.828125 -87.25 L 65.09375 -84.71875 L 64.71875 -82.3125 L 64.59375 -79.53125 L 64.96875 -77.125 L 65.21875 -71.9375 L 63.828125 -69.65625 L 61.171875 -68.265625 L 36.859375 -68.125 L 32.921875 -67 L 31.65625 -63.3125 L 31.90625 -59.390625 L 33.4375 -57.109375 L 35.59375 -55.71875 L 45.59375 -55.84375 L 48.5 -55.59375 L 51.15625 -55.59375 L 53.703125 -55.84375 L 58.765625 -55.71875 L 60.921875 -54.328125 L 62.046875 -51.921875 L 62.3125 -49.390625 L 62.046875 -39.390625 L 60.78125 -36.984375 L 58.25 -35.59375 L 55.96875 -35.453125 L 53.3125 -35.71875 L 49.890625 -35.453125 L 43.1875 -35.84375 L 40.65625 -35.59375 L 35.71875 -35.59375 L 33.4375 -34.1875 L 32.296875 -31.53125 L 32.171875 -25.328125 L 33.3125 -21.40625 L 35.96875 -19.875 L 38.75 -20.140625 L 41.53125 -19.875 L 43.9375 -20.265625 L 60.65625 -20.015625 L 64.453125 -18.75 L 66.109375 -16.203125 L 65.859375 -13.796875 L 65.984375 -5.953125 L 65.71875 -3.546875 L 64.59375 -1.140625 L 61.921875 0.125 L 59.515625 0.375 L 51.796875 -0.125 L 44.078125 0.25 L 41.796875 -0.125 L 13.171875 0.125 L 10.765625 -1.265625 Z M 36.46875 -63.578125 L 38.625 -65.09375 L 41.15625 -65.21875 L 46.734375 -64.96875 L 49.015625 -65.21875 L 61.671875 -64.96875 L 64.078125 -65.21875 L 67 -66.484375 L 68.125 -69.015625 L 68 -76.359375 L 69.265625 -78.890625 L 71.9375 -79.15625 L 73.203125 -76.75 L 73.078125 -71.296875 L 73.453125 -69.015625 L 72.9375 -63.828125 L 71.8125 -61.546875 L 68.390625 -60.15625 L 64.328125 -59.90625 L 55.34375 -60.28125 L 51.546875 -59.90625 L 41.671875 -59.90625 L 39.265625 -59.015625 L 36.71875 -60.53125 Z M 35.203125 -26.46875 L 35.59375 -28.875 L 36.59375 -31.28125 L 38.75 -32.671875 L 43.8125 -32.671875 L 46.484375 -32.296875 L 61.796875 -32.421875 L 64.453125 -33.6875 L 65.34375 -35.96875 L 65.34375 -38.75 L 65.59375 -41.03125 L 65.34375 -43.6875 L 66.609375 -46.09375 L 69.265625 -46.21875 L 70.28125 -42.296875 L 70.796875 -36.09375 L 70.15625 -31.28125 L 69.015625 -28.625 L 66.609375 -27.484375 L 61.671875 -27.359375 L 58.765625 -27.609375 L 56.234375 -27.484375 L 54.328125 -27.234375 L 51.546875 -27.234375 L 49.265625 -27.484375 L 45.34375 -27.359375 L 41.40625 -26.46875 L 39 -24.4375 L 36.34375 -24.1875 Z M 19 4.5625 L 21.53125 3.421875 L 28.109375 3.046875 L 34.578125 3.421875 L 36.71875 3.171875 L 39.515625 3.171875 L 41.921875 3.421875 L 65.59375 3.171875 L 68 2.15625 L 69.015625 -0.640625 L 69.40625 -3.296875 L 69.140625 -5.3125 L 69.53125 -8.109375 L 70.40625 -10.515625 L 72.8125 -10.390625 L 74.21875 -8.109375 L 74.46875 4.4375 L 72.8125 7.21875 L 70.796875 8.609375 L 52.5625 8.609375 L 49.765625 8.234375 L 34.3125 8.359375 L 31.90625 8.609375 L 24.1875 8.234375 L 21.78125 8.359375 L 19.25 6.96875 Z M 19 4.5625 "/></g></g></g><g fill="#ff5055" fill-opacity="0.302"><g transform="translate(678.043501, 470.888932)"><g><path d="M 35.71875 -2.28125 L 32.296875 -9.25 L 31.65625 -11.90625 L 30.390625 -13.796875 L 27.09375 -21.15625 L 26.34375 -23.5625 L 24.1875 -28.109375 L 23.5625 -30.265625 L 15.203125 -49.140625 L 13.9375 -51.15625 L 10.125 -60.40625 L 8.859375 -62.6875 L 6.84375 -67.625 L 5.453125 -70.03125 L 4.6875 -72.3125 L 3.546875 -74.59375 L 1.640625 -79.40625 L 0.5 -81.6875 L 0 -84.71875 L 0.25 -87.515625 L 2.90625 -88.640625 L 5.578125 -88.78125 L 7.859375 -88.515625 L 10 -88.78125 L 17.09375 -88.390625 L 20.015625 -87.375 L 22.15625 -84.84375 L 23.296875 -82.828125 L 24.1875 -80.546875 L 25.453125 -78.140625 L 25.828125 -75.734375 L 30.265625 -66.609375 L 30.78125 -64.078125 L 31.65625 -61.796875 L 32.796875 -59.78125 L 34.3125 -54.703125 L 35.71875 -52.421875 L 36.59375 -50.40625 L 37.359375 -47.875 L 38.375 -45.59375 L 40.015625 -40.78125 L 41.03125 -38.5 L 42.546875 -38.75 L 44.078125 -41.03125 L 44.703125 -43.3125 L 45.96875 -45.71875 L 61.046875 -82.828125 L 61.671875 -85.109375 L 63.953125 -87.515625 L 66.859375 -88.515625 L 81.8125 -88.515625 L 83.96875 -87.765625 L 84.71875 -84.59375 L 83.453125 -81.5625 L 82.953125 -79.40625 L 81.6875 -77 L 80.796875 -74.46875 L 79.40625 -72.3125 L 78.765625 -70.03125 L 76.875 -65.09375 L 75.21875 -63.1875 L 74.59375 -60.78125 L 72.8125 -58.515625 L 72.1875 -56.109375 L 71.546875 -53.953125 L 70.15625 -51.421875 L 68.765625 -46.609375 L 66.109375 -42.046875 L 64.59375 -37.109375 L 56.984375 -20.890625 L 56.234375 -18.609375 L 54.203125 -14.0625 L 52.9375 -11.90625 L 51.796875 -9.5 L 49.640625 -4.5625 L 48.890625 -2.15625 L 46.734375 -0.125 L 43.3125 1.390625 L 40.78125 1.140625 L 37.734375 0 Z M 40.390625 -49.265625 L 35.84375 -61.171875 L 34.3125 -63.703125 L 33.6875 -66.109375 L 31.78125 -70.796875 L 31.15625 -72.9375 L 29 -78.015625 L 29.5 -80.296875 L 32.046875 -80.421875 L 34.0625 -77.75 L 36.59375 -72.9375 L 37.234375 -70.28125 L 38.625 -68.265625 L 42.671875 -58.25 L 43.8125 -52.421875 L 43.1875 -49.015625 L 42.171875 -48 Z M 91.3125 -77.75 L 90.671875 -74.71875 L 87.515625 -67.75 L 86.25 -65.59375 L 85.484375 -62.9375 L 77.125 -44.703125 L 76.625 -42.421875 L 65.09375 -17.34375 L 64.328125 -14.9375 L 62.9375 -12.53125 L 61.421875 -7.859375 L 59.140625 -3.421875 L 58.25 -0.890625 L 55.71875 3.671875 L 54.96875 5.953125 L 52.6875 8.359375 L 49.265625 9.5 L 45.84375 7.984375 L 44.453125 5.453125 L 49.765625 3.046875 L 51.796875 0.765625 L 52.5625 -1.515625 L 53.828125 -3.921875 L 54.703125 -6.078125 L 57.875 -11.90625 L 59.140625 -15.453125 L 59.640625 -17.859375 L 61.171875 -20.140625 L 65.21875 -29.5 L 65.859375 -31.65625 L 67.875 -36.34375 L 69.40625 -38.75 L 70.40625 -41.03125 L 71.171875 -43.4375 L 72.8125 -45.96875 L 74.078125 -50.28125 L 86.75 -78.265625 L 88.515625 -80.421875 L 91.1875 -80.421875 Z M 91.3125 -77.75 "/></g></g></g><g fill="#ff5055" fill-opacity="0.502"><g transform="translate(27.167131, 459.69448)"><g><path d="M 9.625 -3.546875 L 9.375 -16.46875 L 9.625 -19 L 9.25 -21.28125 L 9.625 -23.8125 L 9.375 -26.59375 L 9.75 -32.546875 L 9.5 -35.453125 L 9.75 -39.390625 L 9.375 -41.796875 L 9.375 -49.140625 L 9.625 -51.796875 L 9.125 -59.515625 L 9.625 -62.046875 L 9.375 -64.203125 L 9.75 -67 L 9.125 -74.59375 L 9.5 -77 L 9.25 -79.78125 L 9.25 -82.1875 L 9.625 -84.96875 L 11.015625 -87.125 L 14.9375 -88.265625 L 17.34375 -88.515625 L 19.875 -88.265625 L 27.359375 -88.515625 L 31.28125 -87.25 L 32.796875 -84.59375 L 32.671875 -82.4375 L 33.046875 -69.90625 L 32.796875 -67.625 L 32.796875 -60.03125 L 33.8125 -57.625 L 36.46875 -56.484375 L 48.75 -56.609375 L 51.03125 -56.359375 L 56.109375 -56.359375 L 58.25 -57.625 L 59.640625 -60.15625 L 59.640625 -67.5 L 60.15625 -69.65625 L 59.90625 -83.453125 L 60.921875 -87.125 L 64.71875 -88.265625 L 67.25 -88.265625 L 71.296875 -88.640625 L 77.75 -88.515625 L 81.6875 -87.25 L 82.953125 -84.71875 L 83.203125 -82.1875 L 82.703125 -79.65625 L 82.953125 -77.25 L 83.453125 -74.84375 L 82.828125 -64.328125 L 83.203125 -51.921875 L 82.953125 -49.140625 L 83.078125 -44.328125 L 82.703125 -41.671875 L 82.703125 -39.125 L 82.953125 -36.46875 L 82.828125 -33.9375 L 83.328125 -29.125 L 83.328125 -8.734375 L 82.828125 -3.546875 L 81.4375 -1.140625 L 78.890625 0.25 L 70.15625 0.25 L 66.359375 -0.125 L 63.828125 0.125 L 61.296875 -1.140625 L 60.03125 -3.796875 L 59.640625 -8.734375 L 60.15625 -12.53125 L 59.640625 -21.53125 L 60.03125 -23.9375 L 59.640625 -31.65625 L 58.375 -34.1875 L 56.109375 -35.453125 L 53.703125 -35.453125 L 51.15625 -35.71875 L 48.625 -35.453125 L 41.15625 -35.453125 L 38.875 -35.71875 L 36.21875 -35.71875 L 33.6875 -34.1875 L 32.421875 -31.53125 L 32.796875 -21.53125 L 32.546875 -18.875 L 32.671875 -16.078125 L 32.421875 -13.671875 L 32.671875 -11.140625 L 32.421875 -8.859375 L 32.796875 -6.078125 L 32.671875 -3.546875 L 31.65625 -1.015625 L 28.875 0.125 L 26.21875 0.375 L 23.5625 0 L 19.875 -0.125 L 15.953125 0.25 L 13.546875 0.25 L 10.640625 -0.890625 Z M 69.265625 4.3125 L 72.0625 3.046875 L 74.59375 3.296875 L 79.53125 3.296875 L 81.9375 3.046875 L 85.109375 1.90625 L 86.25 -0.640625 L 86.375 -3.046875 L 85.859375 -5.953125 L 86.375 -8.109375 L 85.984375 -15.828125 L 86.375 -20.765625 L 85.984375 -46.484375 L 86.375 -49.015625 L 86.25 -53.828125 L 86.5 -56.234375 L 85.984375 -58.765625 L 86.5 -69.015625 L 85.859375 -71.546875 L 85.984375 -75.21875 L 87.375 -79.15625 L 89.921875 -79.15625 L 91.5625 -76.625 L 91.1875 -74.078125 L 91.046875 -71.421875 L 91.5625 -60.28125 L 91.046875 -53.953125 L 91.3125 -51.296875 L 91.3125 -48.890625 L 91.046875 -46.09375 L 91.4375 -43.9375 L 91.046875 -41.15625 L 90.921875 -36.21875 L 91.4375 -33.6875 L 91.046875 -23.296875 L 91.5625 -20.890625 L 91.046875 -12.03125 L 91.3125 -9.5 L 91.3125 -5.703125 L 91.046875 -2.90625 L 91.4375 -0.640625 L 91.3125 4.6875 L 89.53125 7.21875 L 87.375 8.234375 L 84.59375 8.484375 L 81.171875 8.109375 L 77.375 8.359375 L 73.578125 8.234375 L 69.265625 7.09375 Z M 35.84375 -63.453125 L 35.84375 -66.234375 L 35.59375 -68.640625 L 35.71875 -71.296875 L 35.59375 -73.828125 L 35.96875 -76.359375 L 37.109375 -79.03125 L 39.890625 -79.03125 L 40.78125 -76.484375 L 40.90625 -71.421875 L 40.53125 -68.765625 L 41.03125 -63.453125 L 39.640625 -60.65625 L 37.234375 -60.78125 Z M 19.25 4.4375 L 22.796875 3.046875 L 26.84375 3.296875 L 30.640625 3.171875 L 34.578125 2.03125 L 35.84375 -0.640625 L 35.96875 -5.703125 L 35.59375 -10.765625 L 36.09375 -13.171875 L 35.59375 -18.609375 L 35.84375 -20.890625 L 35.84375 -28.75 L 36.984375 -31.15625 L 39.640625 -32.296875 L 47.234375 -32.546875 L 50.015625 -32.296875 L 52.5625 -32.421875 L 55.21875 -31.15625 L 55.34375 -28.625 L 51.421875 -27.234375 L 44.953125 -27.484375 L 42.046875 -26.21875 L 40.90625 -23.6875 L 40.65625 -20.890625 L 41.15625 -18.75 L 40.78125 -13.546875 L 41.03125 -9.75 L 40.78125 -3.296875 L 41.28125 0.640625 L 40.90625 4.171875 L 39.265625 6.96875 L 37.109375 8.359375 L 21.78125 8.234375 L 19.125 7.09375 Z M 19.25 4.4375 "/></g></g></g><g fill="#ff5055" fill-opacity="0.502"><g transform="translate(119.870987, 459.69448)"><g><path d="M 1.640625 -3.421875 L 3.171875 -8.734375 L 4.3125 -11.265625 L 5.828125 -13.296875 L 9.5 -22.546875 L 13.046875 -29.125 L 13.9375 -31.65625 L 15.0625 -33.6875 L 15.828125 -36.34375 L 17.609375 -39.640625 L 18.484375 -42.046875 L 20.390625 -45.34375 L 22.421875 -49.890625 L 23.8125 -52.171875 L 24.4375 -54.328125 L 31.53125 -70.28125 L 32.921875 -72.5625 L 38.375 -83.96875 L 39.125 -86.25 L 41.53125 -88.515625 L 45.59375 -89.78125 L 49.890625 -88.640625 L 52.171875 -86.25 L 52.9375 -83.84375 L 54.078125 -81.9375 L 56.109375 -77.125 L 58.640625 -72.4375 L 60.53125 -68 L 61.171875 -65.984375 L 63.453125 -61.171875 L 64.203125 -58.765625 L 66.734375 -54.328125 L 67.375 -51.921875 L 68.640625 -49.765625 L 69.65625 -47.609375 L 71.046875 -45.34375 L 71.8125 -42.796875 L 72.9375 -40.90625 L 73.828125 -38.375 L 74.96875 -36.21875 L 75.984375 -33.6875 L 77.375 -31.65625 L 79.15625 -26.96875 L 80.421875 -24.828125 L 81.296875 -22.421875 L 83.453125 -17.859375 L 84.21875 -15.453125 L 85.484375 -13.546875 L 86.25 -11.015625 L 87.890625 -8.859375 L 88.78125 -6.578125 L 89.53125 -3.421875 L 89.03125 -0.765625 L 86.75 0 L 78.890625 0.25 L 74.46875 -0.125 L 72.1875 0.125 L 68.890625 -1.140625 L 66.734375 -3.171875 L 65.34375 -5.453125 L 64.71875 -7.71875 L 62.046875 -9.75 L 57.875 -11.140625 L 51.921875 -10.890625 L 49.265625 -11.140625 L 46.984375 -11.140625 L 44.078125 -10.765625 L 41.40625 -11.140625 L 34.3125 -11.015625 L 31.78125 -11.265625 L 28.75 -10 L 26.59375 -7.59375 L 24.4375 -3.296875 L 22.15625 -1.015625 L 19.25 0.25 L 15.953125 -0.125 L 4.8125 -0.125 L 2.28125 -0.765625 Z M 61.921875 -80.296875 L 64.203125 -78.140625 L 66.234375 -73.328125 L 67.5 -71.296875 L 68.390625 -68.640625 L 70.40625 -64.203125 L 71.9375 -61.921875 L 72.6875 -59.78125 L 74.078125 -57.5 L 74.71875 -55.09375 L 78.140625 -48.5 L 79.90625 -43.5625 L 81.171875 -41.28125 L 81.9375 -39.125 L 83.328125 -37.109375 L 84.21875 -34.578125 L 87.515625 -27.609375 L 89.03125 -25.578125 L 91.6875 -18.359375 L 95.359375 -11.90625 L 96 -9.5 L 97.265625 -7.21875 L 99.03125 0 L 99.15625 3.421875 L 97.265625 7.34375 L 93.453125 8.484375 L 91.046875 8.484375 L 88.390625 8.234375 L 77.125 8.234375 L 73.828125 7.21875 L 72.9375 4.4375 L 74.59375 3.296875 L 84.84375 3.421875 L 87.515625 3.171875 L 89.921875 3.296875 L 92.578125 2.03125 L 93.59375 0 L 92.0625 -6.578125 L 90.796875 -9.125 L 90.171875 -11.265625 L 88.640625 -13.671875 L 88.140625 -15.953125 L 85.484375 -20.515625 L 84.71875 -23.046875 L 79.40625 -34.453125 L 78.015625 -36.46875 L 75.21875 -43.6875 L 74.078125 -45.84375 L 73.203125 -48 L 71.8125 -50.40625 L 71.046875 -52.9375 L 70.03125 -54.96875 L 68.640625 -56.984375 L 67.375 -59.390625 L 66.859375 -61.921875 L 59.015625 -77.890625 L 59.265625 -80.421875 Z M 40.78125 -31.28125 L 50.65625 -31.40625 L 52.8125 -32.421875 L 53.0625 -34.703125 L 52.171875 -36.984375 L 50.90625 -39.515625 L 50.40625 -41.53125 L 49.015625 -43.6875 L 47.359375 -48.625 L 45.84375 -49.640625 L 44.203125 -48.375 L 43.0625 -46.34375 L 37.984375 -34.828125 L 38.375 -32.296875 Z M 42.296875 -36.59375 L 42.9375 -39.265625 L 44.203125 -41.671875 L 46.484375 -42.671875 L 47.609375 -39 L 45.71875 -34.703125 L 42.9375 -34.0625 Z M 6.328125 5.703125 L 7.859375 3.921875 L 10.515625 3.296875 L 13.421875 3.421875 L 15.703125 3.171875 L 20.640625 3.421875 L 24.0625 2.28125 L 26.21875 0.125 L 28.234375 -4.5625 L 30.640625 -6.84375 L 33.6875 -7.859375 L 36.46875 -7.984375 L 41.671875 -7.71875 L 44.453125 -7.984375 L 47.875 -7.71875 L 54.453125 -7.984375 L 56.859375 -7.859375 L 60.28125 -6.71875 L 61.171875 -3.921875 L 59.265625 -2.90625 L 54.328125 -2.90625 L 52.171875 -2.65625 L 49.390625 -3.046875 L 36.71875 -2.90625 L 34.0625 -1.515625 L 31.53125 0.375 L 29.375 5.1875 L 27.234375 7.21875 L 24.1875 8.484375 L 21.53125 8.609375 L 18.359375 8.234375 L 9.5 8.359375 L 7.21875 7.71875 Z M 6.328125 5.703125 "/></g></g></g><g fill="#ff5055" fill-opacity="0.502"><g transform="translate(211.814967, 459.69448)"><g><path d="M 9.75 -4.046875 L 9.375 -13.9375 L 9.625 -16.59375 L 9.125 -23.9375 L 9.5 -29.125 L 9.125 -31.90625 L 9.25 -36.71875 L 9.5 -39.390625 L 9.5 -45.71875 L 9.125 -49.390625 L 9.5 -84.84375 L 10.515625 -87.515625 L 12.921875 -88.640625 L 15.703125 -88.515625 L 18.109375 -88.90625 L 23.296875 -88.390625 L 25.703125 -88.78125 L 33.3125 -88.515625 L 35.453125 -88.78125 L 38.25 -88.515625 L 40.78125 -88.78125 L 43.5625 -88.640625 L 47.234375 -88.78125 L 50.40625 -88.515625 L 60.921875 -86.375 L 65.34375 -84.09375 L 71.671875 -79.28125 L 72.8125 -77.375 L 74.59375 -75.484375 L 78.015625 -68.515625 L 78.640625 -65.984375 L 79.03125 -63.578125 L 79.65625 -61.171875 L 79.53125 -51.15625 L 78.140625 -46.34375 L 77.25 -44.203125 L 75.859375 -41.921875 L 74.96875 -39.515625 L 73.453125 -37.359375 L 69.90625 -33.9375 L 68.515625 -31.28125 L 68.890625 -28.234375 L 72.6875 -21.65625 L 74.34375 -19.625 L 75.609375 -17.34375 L 77.125 -15.0625 L 78.265625 -12.921875 L 82.3125 -6.71875 L 83.96875 -3.546875 L 83.453125 -0.890625 L 80.796875 -0.25 L 78.015625 0 L 72.9375 0 L 70.40625 -0.25 L 67.625 0 L 63.0625 -0.25 L 59.90625 -1.015625 L 57.375 -3.296875 L 55.84375 -5.3125 L 54.703125 -7.46875 L 53.0625 -9.875 L 49.515625 -16.203125 L 48.625 -18.609375 L 45.34375 -23.046875 L 43.3125 -25.203125 L 40.140625 -26.21875 L 37.859375 -26.09375 L 35.59375 -26.09375 L 33.046875 -24.828125 L 31.90625 -22.28125 L 32.171875 -14.4375 L 31.78125 -8.984375 L 32.296875 -6.328125 L 32.046875 -3.671875 L 31.15625 -1.265625 L 27.234375 0 L 23.421875 0 L 20.765625 -0.25 L 15.578125 0.125 L 13.171875 0 L 10.640625 -1.265625 Z M 35.59375 -46.609375 L 38.375 -46.609375 L 40.90625 -46.21875 L 50.78125 -47.109375 L 52.6875 -48 L 54.203125 -49.515625 L 55.59375 -51.671875 L 56.609375 -54.203125 L 56.984375 -57.625 L 56.734375 -61.296875 L 55.84375 -63.3125 L 54.578125 -65.21875 L 50.65625 -67.625 L 44.828125 -68.390625 L 37.859375 -68.515625 L 35.84375 -68.390625 L 33.3125 -67.125 L 31.78125 -64.59375 L 32.171875 -50.40625 L 33.4375 -47.75 Z M 83.578125 -65.71875 L 84.59375 -63.453125 L 85.484375 -61.296875 L 86.625 -59.140625 L 87.765625 -54.078125 L 87.25 -50.40625 L 87.125 -46.734375 L 85.984375 -41.671875 L 80.796875 -32.796875 L 80.03125 -29.890625 L 80.671875 -26.84375 L 84.09375 -19.875 L 85.734375 -17.859375 L 86.75 -15.453125 L 89.53125 -11.015625 L 91.6875 -5.3125 L 92.578125 -1.265625 L 92.1875 2.90625 L 89.53125 6.71875 L 86.375 7.984375 L 83.578125 8.109375 L 81.296875 7.859375 L 77.5 8.234375 L 72.0625 7.984375 L 67.625 6.71875 L 66.484375 4.4375 L 68.125 3.046875 L 83.453125 3.171875 L 85.859375 1.90625 L 87.125 -0.890625 L 87 -4.4375 L 85.609375 -7.984375 L 84.46875 -9.875 L 82.953125 -12.15625 L 81.9375 -14.4375 L 77.5 -20.765625 L 76.484375 -23.046875 L 75.484375 -25.078125 L 73.953125 -27.234375 L 73.203125 -30.140625 L 74.46875 -33.1875 L 76.359375 -34.953125 L 78.015625 -36.859375 L 80.296875 -41.03125 L 82.5625 -48.125 L 83.078125 -50.65625 L 83.203125 -60.28125 L 82.828125 -62.8125 L 82.0625 -65.09375 L 82.5625 -66.609375 Z M 35.328125 -53.5625 L 35.328125 -61.546875 L 36.46875 -63.828125 L 39.125 -65.34375 L 46.484375 -65.21875 L 50.15625 -64.328125 L 52.421875 -62.9375 L 52.8125 -60.921875 L 50.90625 -60.28125 L 44.703125 -60.40625 L 41.671875 -59.015625 L 39.265625 -51.03125 L 36.46875 -51.296875 Z M 18.875 4.3125 L 21.40625 3.046875 L 31.65625 3.171875 L 34.0625 1.765625 L 35.328125 -2.15625 L 35.078125 -6.078125 L 35.203125 -8.734375 L 35.078125 -11.140625 L 35.453125 -13.9375 L 35.328125 -17.734375 L 36.34375 -21.78125 L 38.5 -22.921875 L 41.28125 -21.53125 L 42.796875 -19.125 L 40.390625 -14.3125 L 40.015625 4.3125 L 39 6.71875 L 35.078125 7.984375 L 21.40625 8.109375 L 18.875 6.84375 Z M 18.875 4.3125 "/></g></g></g><g fill="#ff5055" fill-opacity="0.502"><g transform="translate(299.579669, 459.69448)"><g><path d="M 9.75 -4.046875 L 9.375 -13.9375 L 9.625 -16.59375 L 9.125 -23.9375 L 9.5 -29.125 L 9.125 -31.90625 L 9.25 -36.71875 L 9.5 -39.390625 L 9.5 -45.71875 L 9.125 -49.390625 L 9.5 -84.84375 L 10.515625 -87.515625 L 12.921875 -88.640625 L 15.703125 -88.515625 L 18.109375 -88.90625 L 23.296875 -88.390625 L 25.703125 -88.78125 L 33.3125 -88.515625 L 35.453125 -88.78125 L 38.25 -88.515625 L 40.78125 -88.78125 L 43.5625 -88.640625 L 47.234375 -88.78125 L 50.40625 -88.515625 L 60.921875 -86.375 L 65.34375 -84.09375 L 71.671875 -79.28125 L 72.8125 -77.375 L 74.59375 -75.484375 L 78.015625 -68.515625 L 78.640625 -65.984375 L 79.03125 -63.578125 L 79.65625 -61.171875 L 79.53125 -51.15625 L 78.140625 -46.34375 L 77.25 -44.203125 L 75.859375 -41.921875 L 74.96875 -39.515625 L 73.453125 -37.359375 L 69.90625 -33.9375 L 68.515625 -31.28125 L 68.890625 -28.234375 L 72.6875 -21.65625 L 74.34375 -19.625 L 75.609375 -17.34375 L 77.125 -15.0625 L 78.265625 -12.921875 L 82.3125 -6.71875 L 83.96875 -3.546875 L 83.453125 -0.890625 L 80.796875 -0.25 L 78.015625 0 L 72.9375 0 L 70.40625 -0.25 L 67.625 0 L 63.0625 -0.25 L 59.90625 -1.015625 L 57.375 -3.296875 L 55.84375 -5.3125 L 54.703125 -7.46875 L 53.0625 -9.875 L 49.515625 -16.203125 L 48.625 -18.609375 L 45.34375 -23.046875 L 43.3125 -25.203125 L 40.140625 -26.21875 L 37.859375 -26.09375 L 35.59375 -26.09375 L 33.046875 -24.828125 L 31.90625 -22.28125 L 32.171875 -14.4375 L 31.78125 -8.984375 L 32.296875 -6.328125 L 32.046875 -3.671875 L 31.15625 -1.265625 L 27.234375 0 L 23.421875 0 L 20.765625 -0.25 L 15.578125 0.125 L 13.171875 0 L 10.640625 -1.265625 Z M 35.59375 -46.609375 L 38.375 -46.609375 L 40.90625 -46.21875 L 50.78125 -47.109375 L 52.6875 -48 L 54.203125 -49.515625 L 55.59375 -51.671875 L 56.609375 -54.203125 L 56.984375 -57.625 L 56.734375 -61.296875 L 55.84375 -63.3125 L 54.578125 -65.21875 L 50.65625 -67.625 L 44.828125 -68.390625 L 37.859375 -68.515625 L 35.84375 -68.390625 L 33.3125 -67.125 L 31.78125 -64.59375 L 32.171875 -50.40625 L 33.4375 -47.75 Z M 83.578125 -65.71875 L 84.59375 -63.453125 L 85.484375 -61.296875 L 86.625 -59.140625 L 87.765625 -54.078125 L 87.25 -50.40625 L 87.125 -46.734375 L 85.984375 -41.671875 L 80.796875 -32.796875 L 80.03125 -29.890625 L 80.671875 -26.84375 L 84.09375 -19.875 L 85.734375 -17.859375 L 86.75 -15.453125 L 89.53125 -11.015625 L 91.6875 -5.3125 L 92.578125 -1.265625 L 92.1875 2.90625 L 89.53125 6.71875 L 86.375 7.984375 L 83.578125 8.109375 L 81.296875 7.859375 L 77.5 8.234375 L 72.0625 7.984375 L 67.625 6.71875 L 66.484375 4.4375 L 68.125 3.046875 L 83.453125 3.171875 L 85.859375 1.90625 L 87.125 -0.890625 L 87 -4.4375 L 85.609375 -7.984375 L 84.46875 -9.875 L 82.953125 -12.15625 L 81.9375 -14.4375 L 77.5 -20.765625 L 76.484375 -23.046875 L 75.484375 -25.078125 L 73.953125 -27.234375 L 73.203125 -30.140625 L 74.46875 -33.1875 L 76.359375 -34.953125 L 78.015625 -36.859375 L 80.296875 -41.03125 L 82.5625 -48.125 L 83.078125 -50.65625 L 83.203125 -60.28125 L 82.828125 -62.8125 L 82.0625 -65.09375 L 82.5625 -66.609375 Z M 35.328125 -53.5625 L 35.328125 -61.546875 L 36.46875 -63.828125 L 39.125 -65.34375 L 46.484375 -65.21875 L 50.15625 -64.328125 L 52.421875 -62.9375 L 52.8125 -60.921875 L 50.90625 -60.28125 L 44.703125 -60.40625 L 41.671875 -59.015625 L 39.265625 -51.03125 L 36.46875 -51.296875 Z M 18.875 4.3125 L 21.40625 3.046875 L 31.65625 3.171875 L 34.0625 1.765625 L 35.328125 -2.15625 L 35.078125 -6.078125 L 35.203125 -8.734375 L 35.078125 -11.140625 L 35.453125 -13.9375 L 35.328125 -17.734375 L 36.34375 -21.78125 L 38.5 -22.921875 L 41.28125 -21.53125 L 42.796875 -19.125 L 40.390625 -14.3125 L 40.015625 4.3125 L 39 6.71875 L 35.078125 7.984375 L 21.40625 8.109375 L 18.875 6.84375 Z M 18.875 4.3125 "/></g></g></g><g fill="#ff5055" fill-opacity="0.502"><g transform="translate(387.344382, 459.69448)"><g><path d="M 29.125 -3.546875 L 29.375 -6.203125 L 28.75 -11.390625 L 28.875 -16.203125 L 29.125 -18.484375 L 29 -20.890625 L 28.75 -23.421875 L 28.875 -33.4375 L 28.234375 -37.109375 L 27.234375 -40.390625 L 15.953125 -58.125 L 14.9375 -60.28125 L 1.265625 -81.9375 L 0 -84.96875 L 0.25 -87.765625 L 3.046875 -88.515625 L 19.75 -88.78125 L 22.921875 -87.375 L 25.703125 -85.359375 L 26.71875 -82.828125 L 28.109375 -80.671875 L 34.453125 -69.53125 L 35.203125 -67 L 36.34375 -64.71875 L 39.265625 -60.15625 L 41.03125 -60.40625 L 45.203125 -67.25 L 47.109375 -71.8125 L 50.015625 -75.984375 L 50.78125 -78.390625 L 52.421875 -80.796875 L 54.578125 -85.109375 L 57.234375 -87.515625 L 60.40625 -88.78125 L 62.8125 -88.515625 L 67.625 -88.515625 L 70.28125 -88.90625 L 75.21875 -88.515625 L 77.75 -88.90625 L 80.15625 -87.890625 L 80.546875 -84.84375 L 78.765625 -81.8125 L 77.890625 -79.53125 L 76.359375 -77.625 L 61.796875 -53.5625 L 58.640625 -49.390625 L 57.234375 -47.234375 L 56.234375 -44.828125 L 51.796875 -37.109375 L 51.15625 -33.4375 L 51.671875 -31.15625 L 51.296875 -23.8125 L 51.671875 -21.15625 L 51.03125 -13.421875 L 51.15625 -11.140625 L 51.03125 -8.734375 L 51.296875 -6.078125 L 51.296875 -3.921875 L 50.015625 -1.390625 L 46.21875 -0.125 L 42.671875 0 L 40.015625 -0.125 L 37.484375 0.125 L 32.921875 -0.125 L 30.515625 -1.390625 Z M 38.375 -68.125 L 33.3125 -77.625 L 33.8125 -79.65625 L 36.71875 -79.78125 L 39.515625 -77.625 L 40.390625 -75.609375 L 41.671875 -73.703125 L 42.296875 -70.671875 L 41.796875 -67.75 L 40.140625 -66.734375 Z M 38.625 4.171875 L 42.046875 3.046875 L 49.515625 3.296875 L 53.1875 1.640625 L 54.453125 -1.765625 L 54.328125 -5.3125 L 54.828125 -7.859375 L 54.453125 -12.921875 L 54.703125 -15.453125 L 54.453125 -17.734375 L 54.578125 -22.796875 L 54.328125 -25.078125 L 54.578125 -27.609375 L 54.078125 -29.890625 L 54.203125 -32.671875 L 56.484375 -39.890625 L 59.640625 -43.8125 L 68.640625 -59.265625 L 70.40625 -61.421875 L 72.5625 -65.984375 L 74.46875 -68.125 L 75.734375 -70.03125 L 77.890625 -74.59375 L 79.53125 -77 L 81.5625 -79.03125 L 83.96875 -79.03125 L 84.34375 -76.359375 L 83.203125 -73.578125 L 82.0625 -71.296875 L 80.546875 -69.140625 L 79.65625 -67.125 L 77.890625 -65.09375 L 76.625 -62.5625 L 75.859375 -60.53125 L 74.078125 -58.515625 L 72.8125 -56.359375 L 71.9375 -54.328125 L 68.390625 -48.75 L 66.609375 -45.46875 L 65.34375 -43.6875 L 64.328125 -41.40625 L 62.8125 -39.390625 L 61.671875 -37.109375 L 60.28125 -33.5625 L 59.640625 -30.015625 L 59.515625 -25.078125 L 59.78125 -20.140625 L 59.515625 -17.859375 L 59.265625 -0.375 L 59.640625 4.5625 L 58.375 6.96875 L 55.84375 8.234375 L 41.03125 8.109375 L 38.25 6.96875 Z M 38.625 4.171875 "/></g></g></g><g fill="#ff5055" fill-opacity="0.502"><g transform="translate(467.890345, 459.69448)"><g/></g></g><g fill="#ff5055" fill-opacity="0.502"><g transform="translate(502.211037, 459.69448)"><g><path d="M 9.5 -3.921875 L 9.75 -8.734375 L 9.375 -18.875 L 9.625 -21.40625 L 9.375 -31.53125 L 9.75 -36.46875 L 9.375 -39.125 L 9.75 -41.53125 L 9.375 -46.984375 L 9.75 -51.796875 L 9.25 -61.921875 L 9.625 -64.453125 L 9.25 -67 L 9.625 -69.78125 L 9.375 -74.59375 L 9.5 -77.125 L 9.25 -79.65625 L 9.25 -84.84375 L 11.140625 -87.25 L 13.421875 -88.640625 L 16.078125 -88.515625 L 18.359375 -88.640625 L 20.890625 -88.390625 L 29 -88.640625 L 31.53125 -88.390625 L 49.515625 -88.265625 L 54.703125 -87.25 L 61.671875 -84.96875 L 64.203125 -83.703125 L 68.890625 -80.796875 L 72.4375 -77.375 L 74.59375 -75.734375 L 77.890625 -71.8125 L 78.890625 -69.65625 L 81.8125 -65.34375 L 83.703125 -60.28125 L 84.34375 -58 L 84.59375 -55.34375 L 86.5 -48.125 L 85.984375 -40.015625 L 86.109375 -37.859375 L 85.484375 -35.203125 L 85.109375 -32.546875 L 84.21875 -30.265625 L 83.703125 -27.734375 L 82.4375 -25.328125 L 81.8125 -22.921875 L 77.890625 -16.59375 L 72.8125 -10.765625 L 62.046875 -3.546875 L 54.703125 -1.265625 L 46.609375 -0.125 L 23.8125 0 L 21.15625 0.375 L 18.609375 0.375 L 15.953125 0 L 13.046875 0 L 11.015625 -1.140625 Z M 36.34375 -20.390625 L 46.859375 -20.890625 L 51.421875 -22.15625 L 53.953125 -23.421875 L 55.96875 -24.6875 L 57.5 -26.71875 L 59.140625 -28.5 L 60.78125 -30.78125 L 62.6875 -35.328125 L 63.453125 -37.734375 L 64.078125 -43.9375 L 63.703125 -47.875 L 62.1875 -55.34375 L 60.53125 -57.375 L 59.140625 -59.78125 L 55.96875 -63.3125 L 51.671875 -66.109375 L 46.609375 -67.625 L 42.796875 -67.875 L 40.140625 -67.75 L 37.484375 -67.875 L 33.8125 -66.484375 L 32.296875 -64.203125 L 32.296875 -31.65625 L 31.90625 -29.125 L 32.421875 -26.84375 L 32.171875 -24.3125 L 33.3125 -21.53125 Z M 51.15625 -59.78125 L 45.84375 -59.515625 L 41.796875 -58.375 L 40.140625 -55.84375 L 40.53125 -50.65625 L 40.390625 -45.34375 L 40.65625 -42.796875 L 40.65625 -37.734375 L 40.265625 -35.453125 L 40.390625 -30.015625 L 40.140625 -27.609375 L 38.875 -24.828125 L 36.46875 -24.953125 L 35.59375 -28.875 L 35.078125 -32.671875 L 35.453125 -58.125 L 35.203125 -60.65625 L 36.859375 -63.453125 L 39.765625 -64.59375 L 45.71875 -64.59375 L 50.015625 -63.453125 L 52.8125 -61.921875 L 53.703125 -60.28125 Z M 90.296875 -55.34375 L 91.8125 -50.53125 L 92.328125 -47.75 L 93.078125 -45.34375 L 93.328125 -31.90625 L 92.578125 -27.09375 L 91.5625 -24.4375 L 91.4375 -22.15625 L 90.046875 -20.015625 L 89.03125 -17.734375 L 88.390625 -15.328125 L 85.234375 -11.265625 L 83.96875 -9.125 L 80.546875 -4.9375 L 78.765625 -3.421875 L 70.796875 2.28125 L 63.578125 5.703125 L 61.171875 6.203125 L 56.234375 7.71875 L 31.03125 8.609375 L 28.75 8.359375 L 26.59375 8.609375 L 24.0625 8.359375 L 21.28125 8.609375 L 19 6.96875 L 19.25 4.5625 L 23.296875 3.171875 L 38.375 3.046875 L 42.296875 3.421875 L 55.21875 2.65625 L 59.90625 1.390625 L 61.921875 0.375 L 64.453125 -0.375 L 68.890625 -2.65625 L 76.875 -8.859375 L 78.390625 -11.015625 L 79.90625 -12.65625 L 81.046875 -14.6875 L 84.09375 -19 L 85.359375 -21.53125 L 86.625 -24.828125 L 88.265625 -30.90625 L 88.515625 -33.3125 L 89.28125 -35.71875 L 89.40625 -43.1875 L 88.78125 -48.25 L 89.03125 -53.0625 L 88.515625 -55.21875 L 89.03125 -56.734375 Z M 90.296875 -55.34375 "/></g></g></g><g fill="#ff5055" fill-opacity="0.502"><g transform="translate(594.281681, 459.69448)"><g><path d="M 9.125 -3.671875 L 9.625 -6.203125 L 9.75 -8.734375 L 9.5 -13.671875 L 9.5 -16.203125 L 9.25 -19.125 L 9.625 -21.40625 L 9.5 -23.8125 L 9.75 -26.59375 L 9.375 -29.25 L 9.625 -34.3125 L 9.25 -39.265625 L 9.625 -41.921875 L 9.625 -64.59375 L 9.375 -66.859375 L 9.625 -69.53125 L 9.125 -75.984375 L 9.625 -79.65625 L 9.375 -84.71875 L 10.640625 -87.515625 L 14.3125 -88.390625 L 30.90625 -88.78125 L 33.1875 -88.515625 L 38.125 -88.640625 L 40.65625 -88.390625 L 46.21875 -88.640625 L 48.75 -88.265625 L 51.03125 -88.515625 L 61.171875 -88.390625 L 63.828125 -87.25 L 65.09375 -84.71875 L 64.71875 -82.3125 L 64.59375 -79.53125 L 64.96875 -77.125 L 65.21875 -71.9375 L 63.828125 -69.65625 L 61.171875 -68.265625 L 36.859375 -68.125 L 32.921875 -67 L 31.65625 -63.3125 L 31.90625 -59.390625 L 33.4375 -57.109375 L 35.59375 -55.71875 L 45.59375 -55.84375 L 48.5 -55.59375 L 51.15625 -55.59375 L 53.703125 -55.84375 L 58.765625 -55.71875 L 60.921875 -54.328125 L 62.046875 -51.921875 L 62.3125 -49.390625 L 62.046875 -39.390625 L 60.78125 -36.984375 L 58.25 -35.59375 L 55.96875 -35.453125 L 53.3125 -35.71875 L 49.890625 -35.453125 L 43.1875 -35.84375 L 40.65625 -35.59375 L 35.71875 -35.59375 L 33.4375 -34.1875 L 32.296875 -31.53125 L 32.171875 -25.328125 L 33.3125 -21.40625 L 35.96875 -19.875 L 38.75 -20.140625 L 41.53125 -19.875 L 43.9375 -20.265625 L 60.65625 -20.015625 L 64.453125 -18.75 L 66.109375 -16.203125 L 65.859375 -13.796875 L 65.984375 -5.953125 L 65.71875 -3.546875 L 64.59375 -1.140625 L 61.921875 0.125 L 59.515625 0.375 L 51.796875 -0.125 L 44.078125 0.25 L 41.796875 -0.125 L 13.171875 0.125 L 10.765625 -1.265625 Z M 36.46875 -63.578125 L 38.625 -65.09375 L 41.15625 -65.21875 L 46.734375 -64.96875 L 49.015625 -65.21875 L 61.671875 -64.96875 L 64.078125 -65.21875 L 67 -66.484375 L 68.125 -69.015625 L 68 -76.359375 L 69.265625 -78.890625 L 71.9375 -79.15625 L 73.203125 -76.75 L 73.078125 -71.296875 L 73.453125 -69.015625 L 72.9375 -63.828125 L 71.8125 -61.546875 L 68.390625 -60.15625 L 64.328125 -59.90625 L 55.34375 -60.28125 L 51.546875 -59.90625 L 41.671875 -59.90625 L 39.265625 -59.015625 L 36.71875 -60.53125 Z M 35.203125 -26.46875 L 35.59375 -28.875 L 36.59375 -31.28125 L 38.75 -32.671875 L 43.8125 -32.671875 L 46.484375 -32.296875 L 61.796875 -32.421875 L 64.453125 -33.6875 L 65.34375 -35.96875 L 65.34375 -38.75 L 65.59375 -41.03125 L 65.34375 -43.6875 L 66.609375 -46.09375 L 69.265625 -46.21875 L 70.28125 -42.296875 L 70.796875 -36.09375 L 70.15625 -31.28125 L 69.015625 -28.625 L 66.609375 -27.484375 L 61.671875 -27.359375 L 58.765625 -27.609375 L 56.234375 -27.484375 L 54.328125 -27.234375 L 51.546875 -27.234375 L 49.265625 -27.484375 L 45.34375 -27.359375 L 41.40625 -26.46875 L 39 -24.4375 L 36.34375 -24.1875 Z M 19 4.5625 L 21.53125 3.421875 L 28.109375 3.046875 L 34.578125 3.421875 L 36.71875 3.171875 L 39.515625 3.171875 L 41.921875 3.421875 L 65.59375 3.171875 L 68 2.15625 L 69.015625 -0.640625 L 69.40625 -3.296875 L 69.140625 -5.3125 L 69.53125 -8.109375 L 70.40625 -10.515625 L 72.8125 -10.390625 L 74.21875 -8.109375 L 74.46875 4.4375 L 72.8125 7.21875 L 70.796875 8.609375 L 52.5625 8.609375 L 49.765625 8.234375 L 34.3125 8.359375 L 31.90625 8.609375 L 24.1875 8.234375 L 21.78125 8.359375 L 19.25 6.96875 Z M 19 4.5625 "/></g></g></g><g fill="#ff5055" fill-opacity="0.502"><g transform="translate(666.849029, 459.69448)"><g><path d="M 35.71875 -2.28125 L 32.296875 -9.25 L 31.65625 -11.90625 L 30.390625 -13.796875 L 27.09375 -21.15625 L 26.34375 -23.5625 L 24.1875 -28.109375 L 23.5625 -30.265625 L 15.203125 -49.140625 L 13.9375 -51.15625 L 10.125 -60.40625 L 8.859375 -62.6875 L 6.84375 -67.625 L 5.453125 -70.03125 L 4.6875 -72.3125 L 3.546875 -74.59375 L 1.640625 -79.40625 L 0.5 -81.6875 L 0 -84.71875 L 0.25 -87.515625 L 2.90625 -88.640625 L 5.578125 -88.78125 L 7.859375 -88.515625 L 10 -88.78125 L 17.09375 -88.390625 L 20.015625 -87.375 L 22.15625 -84.84375 L 23.296875 -82.828125 L 24.1875 -80.546875 L 25.453125 -78.140625 L 25.828125 -75.734375 L 30.265625 -66.609375 L 30.78125 -64.078125 L 31.65625 -61.796875 L 32.796875 -59.78125 L 34.3125 -54.703125 L 35.71875 -52.421875 L 36.59375 -50.40625 L 37.359375 -47.875 L 38.375 -45.59375 L 40.015625 -40.78125 L 41.03125 -38.5 L 42.546875 -38.75 L 44.078125 -41.03125 L 44.703125 -43.3125 L 45.96875 -45.71875 L 61.046875 -82.828125 L 61.671875 -85.109375 L 63.953125 -87.515625 L 66.859375 -88.515625 L 81.8125 -88.515625 L 83.96875 -87.765625 L 84.71875 -84.59375 L 83.453125 -81.5625 L 82.953125 -79.40625 L 81.6875 -77 L 80.796875 -74.46875 L 79.40625 -72.3125 L 78.765625 -70.03125 L 76.875 -65.09375 L 75.21875 -63.1875 L 74.59375 -60.78125 L 72.8125 -58.515625 L 72.1875 -56.109375 L 71.546875 -53.953125 L 70.15625 -51.421875 L 68.765625 -46.609375 L 66.109375 -42.046875 L 64.59375 -37.109375 L 56.984375 -20.890625 L 56.234375 -18.609375 L 54.203125 -14.0625 L 52.9375 -11.90625 L 51.796875 -9.5 L 49.640625 -4.5625 L 48.890625 -2.15625 L 46.734375 -0.125 L 43.3125 1.390625 L 40.78125 1.140625 L 37.734375 0 Z M 40.390625 -49.265625 L 35.84375 -61.171875 L 34.3125 -63.703125 L 33.6875 -66.109375 L 31.78125 -70.796875 L 31.15625 -72.9375 L 29 -78.015625 L 29.5 -80.296875 L 32.046875 -80.421875 L 34.0625 -77.75 L 36.59375 -72.9375 L 37.234375 -70.28125 L 38.625 -68.265625 L 42.671875 -58.25 L 43.8125 -52.421875 L 43.1875 -49.015625 L 42.171875 -48 Z M 91.3125 -77.75 L 90.671875 -74.71875 L 87.515625 -67.75 L 86.25 -65.59375 L 85.484375 -62.9375 L 77.125 -44.703125 L 76.625 -42.421875 L 65.09375 -17.34375 L 64.328125 -14.9375 L 62.9375 -12.53125 L 61.421875 -7.859375 L 59.140625 -3.421875 L 58.25 -0.890625 L 55.71875 3.671875 L 54.96875 5.953125 L 52.6875 8.359375 L 49.265625 9.5 L 45.84375 7.984375 L 44.453125 5.453125 L 49.765625 3.046875 L 51.796875 0.765625 L 52.5625 -1.515625 L 53.828125 -3.921875 L 54.703125 -6.078125 L 57.875 -11.90625 L 59.140625 -15.453125 L 59.640625 -17.859375 L 61.171875 -20.140625 L 65.21875 -29.5 L 65.859375 -31.65625 L 67.875 -36.34375 L 69.40625 -38.75 L 70.40625 -41.03125 L 71.171875 -43.4375 L 72.8125 -45.96875 L 74.078125 -50.28125 L 86.75 -78.265625 L 88.515625 -80.421875 L 91.1875 -80.421875 Z M 91.3125 -77.75 "/></g></g></g><g fill="#000000" fill-opacity="1"><g transform="translate(15.972659, 448.499997)"><g><path d="M 9.625 -3.546875 L 9.375 -16.46875 L 9.625 -19 L 9.25 -21.28125 L 9.625 -23.8125 L 9.375 -26.59375 L 9.75 -32.546875 L 9.5 -35.453125 L 9.75 -39.390625 L 9.375 -41.796875 L 9.375 -49.140625 L 9.625 -51.796875 L 9.125 -59.515625 L 9.625 -62.046875 L 9.375 -64.203125 L 9.75 -67 L 9.125 -74.59375 L 9.5 -77 L 9.25 -79.78125 L 9.25 -82.1875 L 9.625 -84.96875 L 11.015625 -87.125 L 14.9375 -88.265625 L 17.34375 -88.515625 L 19.875 -88.265625 L 27.359375 -88.515625 L 31.28125 -87.25 L 32.796875 -84.59375 L 32.671875 -82.4375 L 33.046875 -69.90625 L 32.796875 -67.625 L 32.796875 -60.03125 L 33.8125 -57.625 L 36.46875 -56.484375 L 48.75 -56.609375 L 51.03125 -56.359375 L 56.109375 -56.359375 L 58.25 -57.625 L 59.640625 -60.15625 L 59.640625 -67.5 L 60.15625 -69.65625 L 59.90625 -83.453125 L 60.921875 -87.125 L 64.71875 -88.265625 L 67.25 -88.265625 L 71.296875 -88.640625 L 77.75 -88.515625 L 81.6875 -87.25 L 82.953125 -84.71875 L 83.203125 -82.1875 L 82.703125 -79.65625 L 82.953125 -77.25 L 83.453125 -74.84375 L 82.828125 -64.328125 L 83.203125 -51.921875 L 82.953125 -49.140625 L 83.078125 -44.328125 L 82.703125 -41.671875 L 82.703125 -39.125 L 82.953125 -36.46875 L 82.828125 -33.9375 L 83.328125 -29.125 L 83.328125 -8.734375 L 82.828125 -3.546875 L 81.4375 -1.140625 L 78.890625 0.25 L 70.15625 0.25 L 66.359375 -0.125 L 63.828125 0.125 L 61.296875 -1.140625 L 60.03125 -3.796875 L 59.640625 -8.734375 L 60.15625 -12.53125 L 59.640625 -21.53125 L 60.03125 -23.9375 L 59.640625 -31.65625 L 58.375 -34.1875 L 56.109375 -35.453125 L 53.703125 -35.453125 L 51.15625 -35.71875 L 48.625 -35.453125 L 41.15625 -35.453125 L 38.875 -35.71875 L 36.21875 -35.71875 L 33.6875 -34.1875 L 32.421875 -31.53125 L 32.796875 -21.53125 L 32.546875 -18.875 L 32.671875 -16.078125 L 32.421875 -13.671875 L 32.671875 -11.140625 L 32.421875 -8.859375 L 32.796875 -6.078125 L 32.671875 -3.546875 L 31.65625 -1.015625 L 28.875 0.125 L 26.21875 0.375 L 23.5625 0 L 19.875 -0.125 L 15.953125 0.25 L 13.546875 0.25 L 10.640625 -0.890625 Z M 69.265625 4.3125 L 72.0625 3.046875 L 74.59375 3.296875 L 79.53125 3.296875 L 81.9375 3.046875 L 85.109375 1.90625 L 86.25 -0.640625 L 86.375 -3.046875 L 85.859375 -5.953125 L 86.375 -8.109375 L 85.984375 -15.828125 L 86.375 -20.765625 L 85.984375 -46.484375 L 86.375 -49.015625 L 86.25 -53.828125 L 86.5 -56.234375 L 85.984375 -58.765625 L 86.5 -69.015625 L 85.859375 -71.546875 L 85.984375 -75.21875 L 87.375 -79.15625 L 89.921875 -79.15625 L 91.5625 -76.625 L 91.1875 -74.078125 L 91.046875 -71.421875 L 91.5625 -60.28125 L 91.046875 -53.953125 L 91.3125 -51.296875 L 91.3125 -48.890625 L 91.046875 -46.09375 L 91.4375 -43.9375 L 91.046875 -41.15625 L 90.921875 -36.21875 L 91.4375 -33.6875 L 91.046875 -23.296875 L 91.5625 -20.890625 L 91.046875 -12.03125 L 91.3125 -9.5 L 91.3125 -5.703125 L 91.046875 -2.90625 L 91.4375 -0.640625 L 91.3125 4.6875 L 89.53125 7.21875 L 87.375 8.234375 L 84.59375 8.484375 L 81.171875 8.109375 L 77.375 8.359375 L 73.578125 8.234375 L 69.265625 7.09375 Z M 35.84375 -63.453125 L 35.84375 -66.234375 L 35.59375 -68.640625 L 35.71875 -71.296875 L 35.59375 -73.828125 L 35.96875 -76.359375 L 37.109375 -79.03125 L 39.890625 -79.03125 L 40.78125 -76.484375 L 40.90625 -71.421875 L 40.53125 -68.765625 L 41.03125 -63.453125 L 39.640625 -60.65625 L 37.234375 -60.78125 Z M 19.25 4.4375 L 22.796875 3.046875 L 26.84375 3.296875 L 30.640625 3.171875 L 34.578125 2.03125 L 35.84375 -0.640625 L 35.96875 -5.703125 L 35.59375 -10.765625 L 36.09375 -13.171875 L 35.59375 -18.609375 L 35.84375 -20.890625 L 35.84375 -28.75 L 36.984375 -31.15625 L 39.640625 -32.296875 L 47.234375 -32.546875 L 50.015625 -32.296875 L 52.5625 -32.421875 L 55.21875 -31.15625 L 55.34375 -28.625 L 51.421875 -27.234375 L 44.953125 -27.484375 L 42.046875 -26.21875 L 40.90625 -23.6875 L 40.65625 -20.890625 L 41.15625 -18.75 L 40.78125 -13.546875 L 41.03125 -9.75 L 40.78125 -3.296875 L 41.28125 0.640625 L 40.90625 4.171875 L 39.265625 6.96875 L 37.109375 8.359375 L 21.78125 8.234375 L 19.125 7.09375 Z M 19.25 4.4375 "/></g></g></g><g fill="#000000" fill-opacity="1"><g transform="translate(108.676515, 448.499997)"><g><path d="M 1.640625 -3.421875 L 3.171875 -8.734375 L 4.3125 -11.265625 L 5.828125 -13.296875 L 9.5 -22.546875 L 13.046875 -29.125 L 13.9375 -31.65625 L 15.0625 -33.6875 L 15.828125 -36.34375 L 17.609375 -39.640625 L 18.484375 -42.046875 L 20.390625 -45.34375 L 22.421875 -49.890625 L 23.8125 -52.171875 L 24.4375 -54.328125 L 31.53125 -70.28125 L 32.921875 -72.5625 L 38.375 -83.96875 L 39.125 -86.25 L 41.53125 -88.515625 L 45.59375 -89.78125 L 49.890625 -88.640625 L 52.171875 -86.25 L 52.9375 -83.84375 L 54.078125 -81.9375 L 56.109375 -77.125 L 58.640625 -72.4375 L 60.53125 -68 L 61.171875 -65.984375 L 63.453125 -61.171875 L 64.203125 -58.765625 L 66.734375 -54.328125 L 67.375 -51.921875 L 68.640625 -49.765625 L 69.65625 -47.609375 L 71.046875 -45.34375 L 71.8125 -42.796875 L 72.9375 -40.90625 L 73.828125 -38.375 L 74.96875 -36.21875 L 75.984375 -33.6875 L 77.375 -31.65625 L 79.15625 -26.96875 L 80.421875 -24.828125 L 81.296875 -22.421875 L 83.453125 -17.859375 L 84.21875 -15.453125 L 85.484375 -13.546875 L 86.25 -11.015625 L 87.890625 -8.859375 L 88.78125 -6.578125 L 89.53125 -3.421875 L 89.03125 -0.765625 L 86.75 0 L 78.890625 0.25 L 74.46875 -0.125 L 72.1875 0.125 L 68.890625 -1.140625 L 66.734375 -3.171875 L 65.34375 -5.453125 L 64.71875 -7.71875 L 62.046875 -9.75 L 57.875 -11.140625 L 51.921875 -10.890625 L 49.265625 -11.140625 L 46.984375 -11.140625 L 44.078125 -10.765625 L 41.40625 -11.140625 L 34.3125 -11.015625 L 31.78125 -11.265625 L 28.75 -10 L 26.59375 -7.59375 L 24.4375 -3.296875 L 22.15625 -1.015625 L 19.25 0.25 L 15.953125 -0.125 L 4.8125 -0.125 L 2.28125 -0.765625 Z M 61.921875 -80.296875 L 64.203125 -78.140625 L 66.234375 -73.328125 L 67.5 -71.296875 L 68.390625 -68.640625 L 70.40625 -64.203125 L 71.9375 -61.921875 L 72.6875 -59.78125 L 74.078125 -57.5 L 74.71875 -55.09375 L 78.140625 -48.5 L 79.90625 -43.5625 L 81.171875 -41.28125 L 81.9375 -39.125 L 83.328125 -37.109375 L 84.21875 -34.578125 L 87.515625 -27.609375 L 89.03125 -25.578125 L 91.6875 -18.359375 L 95.359375 -11.90625 L 96 -9.5 L 97.265625 -7.21875 L 99.03125 0 L 99.15625 3.421875 L 97.265625 7.34375 L 93.453125 8.484375 L 91.046875 8.484375 L 88.390625 8.234375 L 77.125 8.234375 L 73.828125 7.21875 L 72.9375 4.4375 L 74.59375 3.296875 L 84.84375 3.421875 L 87.515625 3.171875 L 89.921875 3.296875 L 92.578125 2.03125 L 93.59375 0 L 92.0625 -6.578125 L 90.796875 -9.125 L 90.171875 -11.265625 L 88.640625 -13.671875 L 88.140625 -15.953125 L 85.484375 -20.515625 L 84.71875 -23.046875 L 79.40625 -34.453125 L 78.015625 -36.46875 L 75.21875 -43.6875 L 74.078125 -45.84375 L 73.203125 -48 L 71.8125 -50.40625 L 71.046875 -52.9375 L 70.03125 -54.96875 L 68.640625 -56.984375 L 67.375 -59.390625 L 66.859375 -61.921875 L 59.015625 -77.890625 L 59.265625 -80.421875 Z M 40.78125 -31.28125 L 50.65625 -31.40625 L 52.8125 -32.421875 L 53.0625 -34.703125 L 52.171875 -36.984375 L 50.90625 -39.515625 L 50.40625 -41.53125 L 49.015625 -43.6875 L 47.359375 -48.625 L 45.84375 -49.640625 L 44.203125 -48.375 L 43.0625 -46.34375 L 37.984375 -34.828125 L 38.375 -32.296875 Z M 42.296875 -36.59375 L 42.9375 -39.265625 L 44.203125 -41.671875 L 46.484375 -42.671875 L 47.609375 -39 L 45.71875 -34.703125 L 42.9375 -34.0625 Z M 6.328125 5.703125 L 7.859375 3.921875 L 10.515625 3.296875 L 13.421875 3.421875 L 15.703125 3.171875 L 20.640625 3.421875 L 24.0625 2.28125 L 26.21875 0.125 L 28.234375 -4.5625 L 30.640625 -6.84375 L 33.6875 -7.859375 L 36.46875 -7.984375 L 41.671875 -7.71875 L 44.453125 -7.984375 L 47.875 -7.71875 L 54.453125 -7.984375 L 56.859375 -7.859375 L 60.28125 -6.71875 L 61.171875 -3.921875 L 59.265625 -2.90625 L 54.328125 -2.90625 L 52.171875 -2.65625 L 49.390625 -3.046875 L 36.71875 -2.90625 L 34.0625 -1.515625 L 31.53125 0.375 L 29.375 5.1875 L 27.234375 7.21875 L 24.1875 8.484375 L 21.53125 8.609375 L 18.359375 8.234375 L 9.5 8.359375 L 7.21875 7.71875 Z M 6.328125 5.703125 "/></g></g></g><g fill="#000000" fill-opacity="1"><g transform="translate(200.620496, 448.499997)"><g><path d="M 9.75 -4.046875 L 9.375 -13.9375 L 9.625 -16.59375 L 9.125 -23.9375 L 9.5 -29.125 L 9.125 -31.90625 L 9.25 -36.71875 L 9.5 -39.390625 L 9.5 -45.71875 L 9.125 -49.390625 L 9.5 -84.84375 L 10.515625 -87.515625 L 12.921875 -88.640625 L 15.703125 -88.515625 L 18.109375 -88.90625 L 23.296875 -88.390625 L 25.703125 -88.78125 L 33.3125 -88.515625 L 35.453125 -88.78125 L 38.25 -88.515625 L 40.78125 -88.78125 L 43.5625 -88.640625 L 47.234375 -88.78125 L 50.40625 -88.515625 L 60.921875 -86.375 L 65.34375 -84.09375 L 71.671875 -79.28125 L 72.8125 -77.375 L 74.59375 -75.484375 L 78.015625 -68.515625 L 78.640625 -65.984375 L 79.03125 -63.578125 L 79.65625 -61.171875 L 79.53125 -51.15625 L 78.140625 -46.34375 L 77.25 -44.203125 L 75.859375 -41.921875 L 74.96875 -39.515625 L 73.453125 -37.359375 L 69.90625 -33.9375 L 68.515625 -31.28125 L 68.890625 -28.234375 L 72.6875 -21.65625 L 74.34375 -19.625 L 75.609375 -17.34375 L 77.125 -15.0625 L 78.265625 -12.921875 L 82.3125 -6.71875 L 83.96875 -3.546875 L 83.453125 -0.890625 L 80.796875 -0.25 L 78.015625 0 L 72.9375 0 L 70.40625 -0.25 L 67.625 0 L 63.0625 -0.25 L 59.90625 -1.015625 L 57.375 -3.296875 L 55.84375 -5.3125 L 54.703125 -7.46875 L 53.0625 -9.875 L 49.515625 -16.203125 L 48.625 -18.609375 L 45.34375 -23.046875 L 43.3125 -25.203125 L 40.140625 -26.21875 L 37.859375 -26.09375 L 35.59375 -26.09375 L 33.046875 -24.828125 L 31.90625 -22.28125 L 32.171875 -14.4375 L 31.78125 -8.984375 L 32.296875 -6.328125 L 32.046875 -3.671875 L 31.15625 -1.265625 L 27.234375 0 L 23.421875 0 L 20.765625 -0.25 L 15.578125 0.125 L 13.171875 0 L 10.640625 -1.265625 Z M 35.59375 -46.609375 L 38.375 -46.609375 L 40.90625 -46.21875 L 50.78125 -47.109375 L 52.6875 -48 L 54.203125 -49.515625 L 55.59375 -51.671875 L 56.609375 -54.203125 L 56.984375 -57.625 L 56.734375 -61.296875 L 55.84375 -63.3125 L 54.578125 -65.21875 L 50.65625 -67.625 L 44.828125 -68.390625 L 37.859375 -68.515625 L 35.84375 -68.390625 L 33.3125 -67.125 L 31.78125 -64.59375 L 32.171875 -50.40625 L 33.4375 -47.75 Z M 83.578125 -65.71875 L 84.59375 -63.453125 L 85.484375 -61.296875 L 86.625 -59.140625 L 87.765625 -54.078125 L 87.25 -50.40625 L 87.125 -46.734375 L 85.984375 -41.671875 L 80.796875 -32.796875 L 80.03125 -29.890625 L 80.671875 -26.84375 L 84.09375 -19.875 L 85.734375 -17.859375 L 86.75 -15.453125 L 89.53125 -11.015625 L 91.6875 -5.3125 L 92.578125 -1.265625 L 92.1875 2.90625 L 89.53125 6.71875 L 86.375 7.984375 L 83.578125 8.109375 L 81.296875 7.859375 L 77.5 8.234375 L 72.0625 7.984375 L 67.625 6.71875 L 66.484375 4.4375 L 68.125 3.046875 L 83.453125 3.171875 L 85.859375 1.90625 L 87.125 -0.890625 L 87 -4.4375 L 85.609375 -7.984375 L 84.46875 -9.875 L 82.953125 -12.15625 L 81.9375 -14.4375 L 77.5 -20.765625 L 76.484375 -23.046875 L 75.484375 -25.078125 L 73.953125 -27.234375 L 73.203125 -30.140625 L 74.46875 -33.1875 L 76.359375 -34.953125 L 78.015625 -36.859375 L 80.296875 -41.03125 L 82.5625 -48.125 L 83.078125 -50.65625 L 83.203125 -60.28125 L 82.828125 -62.8125 L 82.0625 -65.09375 L 82.5625 -66.609375 Z M 35.328125 -53.5625 L 35.328125 -61.546875 L 36.46875 -63.828125 L 39.125 -65.34375 L 46.484375 -65.21875 L 50.15625 -64.328125 L 52.421875 -62.9375 L 52.8125 -60.921875 L 50.90625 -60.28125 L 44.703125 -60.40625 L 41.671875 -59.015625 L 39.265625 -51.03125 L 36.46875 -51.296875 Z M 18.875 4.3125 L 21.40625 3.046875 L 31.65625 3.171875 L 34.0625 1.765625 L 35.328125 -2.15625 L 35.078125 -6.078125 L 35.203125 -8.734375 L 35.078125 -11.140625 L 35.453125 -13.9375 L 35.328125 -17.734375 L 36.34375 -21.78125 L 38.5 -22.921875 L 41.28125 -21.53125 L 42.796875 -19.125 L 40.390625 -14.3125 L 40.015625 4.3125 L 39 6.71875 L 35.078125 7.984375 L 21.40625 8.109375 L 18.875 6.84375 Z M 18.875 4.3125 "/></g></g></g><g fill="#000000" fill-opacity="1"><g transform="translate(288.385197, 448.499997)"><g><path d="M 9.75 -4.046875 L 9.375 -13.9375 L 9.625 -16.59375 L 9.125 -23.9375 L 9.5 -29.125 L 9.125 -31.90625 L 9.25 -36.71875 L 9.5 -39.390625 L 9.5 -45.71875 L 9.125 -49.390625 L 9.5 -84.84375 L 10.515625 -87.515625 L 12.921875 -88.640625 L 15.703125 -88.515625 L 18.109375 -88.90625 L 23.296875 -88.390625 L 25.703125 -88.78125 L 33.3125 -88.515625 L 35.453125 -88.78125 L 38.25 -88.515625 L 40.78125 -88.78125 L 43.5625 -88.640625 L 47.234375 -88.78125 L 50.40625 -88.515625 L 60.921875 -86.375 L 65.34375 -84.09375 L 71.671875 -79.28125 L 72.8125 -77.375 L 74.59375 -75.484375 L 78.015625 -68.515625 L 78.640625 -65.984375 L 79.03125 -63.578125 L 79.65625 -61.171875 L 79.53125 -51.15625 L 78.140625 -46.34375 L 77.25 -44.203125 L 75.859375 -41.921875 L 74.96875 -39.515625 L 73.453125 -37.359375 L 69.90625 -33.9375 L 68.515625 -31.28125 L 68.890625 -28.234375 L 72.6875 -21.65625 L 74.34375 -19.625 L 75.609375 -17.34375 L 77.125 -15.0625 L 78.265625 -12.921875 L 82.3125 -6.71875 L 83.96875 -3.546875 L 83.453125 -0.890625 L 80.796875 -0.25 L 78.015625 0 L 72.9375 0 L 70.40625 -0.25 L 67.625 0 L 63.0625 -0.25 L 59.90625 -1.015625 L 57.375 -3.296875 L 55.84375 -5.3125 L 54.703125 -7.46875 L 53.0625 -9.875 L 49.515625 -16.203125 L 48.625 -18.609375 L 45.34375 -23.046875 L 43.3125 -25.203125 L 40.140625 -26.21875 L 37.859375 -26.09375 L 35.59375 -26.09375 L 33.046875 -24.828125 L 31.90625 -22.28125 L 32.171875 -14.4375 L 31.78125 -8.984375 L 32.296875 -6.328125 L 32.046875 -3.671875 L 31.15625 -1.265625 L 27.234375 0 L 23.421875 0 L 20.765625 -0.25 L 15.578125 0.125 L 13.171875 0 L 10.640625 -1.265625 Z M 35.59375 -46.609375 L 38.375 -46.609375 L 40.90625 -46.21875 L 50.78125 -47.109375 L 52.6875 -48 L 54.203125 -49.515625 L 55.59375 -51.671875 L 56.609375 -54.203125 L 56.984375 -57.625 L 56.734375 -61.296875 L 55.84375 -63.3125 L 54.578125 -65.21875 L 50.65625 -67.625 L 44.828125 -68.390625 L 37.859375 -68.515625 L 35.84375 -68.390625 L 33.3125 -67.125 L 31.78125 -64.59375 L 32.171875 -50.40625 L 33.4375 -47.75 Z M 83.578125 -65.71875 L 84.59375 -63.453125 L 85.484375 -61.296875 L 86.625 -59.140625 L 87.765625 -54.078125 L 87.25 -50.40625 L 87.125 -46.734375 L 85.984375 -41.671875 L 80.796875 -32.796875 L 80.03125 -29.890625 L 80.671875 -26.84375 L 84.09375 -19.875 L 85.734375 -17.859375 L 86.75 -15.453125 L 89.53125 -11.015625 L 91.6875 -5.3125 L 92.578125 -1.265625 L 92.1875 2.90625 L 89.53125 6.71875 L 86.375 7.984375 L 83.578125 8.109375 L 81.296875 7.859375 L 77.5 8.234375 L 72.0625 7.984375 L 67.625 6.71875 L 66.484375 4.4375 L 68.125 3.046875 L 83.453125 3.171875 L 85.859375 1.90625 L 87.125 -0.890625 L 87 -4.4375 L 85.609375 -7.984375 L 84.46875 -9.875 L 82.953125 -12.15625 L 81.9375 -14.4375 L 77.5 -20.765625 L 76.484375 -23.046875 L 75.484375 -25.078125 L 73.953125 -27.234375 L 73.203125 -30.140625 L 74.46875 -33.1875 L 76.359375 -34.953125 L 78.015625 -36.859375 L 80.296875 -41.03125 L 82.5625 -48.125 L 83.078125 -50.65625 L 83.203125 -60.28125 L 82.828125 -62.8125 L 82.0625 -65.09375 L 82.5625 -66.609375 Z M 35.328125 -53.5625 L 35.328125 -61.546875 L 36.46875 -63.828125 L 39.125 -65.34375 L 46.484375 -65.21875 L 50.15625 -64.328125 L 52.421875 -62.9375 L 52.8125 -60.921875 L 50.90625 -60.28125 L 44.703125 -60.40625 L 41.671875 -59.015625 L 39.265625 -51.03125 L 36.46875 -51.296875 Z M 18.875 4.3125 L 21.40625 3.046875 L 31.65625 3.171875 L 34.0625 1.765625 L 35.328125 -2.15625 L 35.078125 -6.078125 L 35.203125 -8.734375 L 35.078125 -11.140625 L 35.453125 -13.9375 L 35.328125 -17.734375 L 36.34375 -21.78125 L 38.5 -22.921875 L 41.28125 -21.53125 L 42.796875 -19.125 L 40.390625 -14.3125 L 40.015625 4.3125 L 39 6.71875 L 35.078125 7.984375 L 21.40625 8.109375 L 18.875 6.84375 Z M 18.875 4.3125 "/></g></g></g><g fill="#000000" fill-opacity="1"><g transform="translate(376.14991, 448.499997)"><g><path d="M 29.125 -3.546875 L 29.375 -6.203125 L 28.75 -11.390625 L 28.875 -16.203125 L 29.125 -18.484375 L 29 -20.890625 L 28.75 -23.421875 L 28.875 -33.4375 L 28.234375 -37.109375 L 27.234375 -40.390625 L 15.953125 -58.125 L 14.9375 -60.28125 L 1.265625 -81.9375 L 0 -84.96875 L 0.25 -87.765625 L 3.046875 -88.515625 L 19.75 -88.78125 L 22.921875 -87.375 L 25.703125 -85.359375 L 26.71875 -82.828125 L 28.109375 -80.671875 L 34.453125 -69.53125 L 35.203125 -67 L 36.34375 -64.71875 L 39.265625 -60.15625 L 41.03125 -60.40625 L 45.203125 -67.25 L 47.109375 -71.8125 L 50.015625 -75.984375 L 50.78125 -78.390625 L 52.421875 -80.796875 L 54.578125 -85.109375 L 57.234375 -87.515625 L 60.40625 -88.78125 L 62.8125 -88.515625 L 67.625 -88.515625 L 70.28125 -88.90625 L 75.21875 -88.515625 L 77.75 -88.90625 L 80.15625 -87.890625 L 80.546875 -84.84375 L 78.765625 -81.8125 L 77.890625 -79.53125 L 76.359375 -77.625 L 61.796875 -53.5625 L 58.640625 -49.390625 L 57.234375 -47.234375 L 56.234375 -44.828125 L 51.796875 -37.109375 L 51.15625 -33.4375 L 51.671875 -31.15625 L 51.296875 -23.8125 L 51.671875 -21.15625 L 51.03125 -13.421875 L 51.15625 -11.140625 L 51.03125 -8.734375 L 51.296875 -6.078125 L 51.296875 -3.921875 L 50.015625 -1.390625 L 46.21875 -0.125 L 42.671875 0 L 40.015625 -0.125 L 37.484375 0.125 L 32.921875 -0.125 L 30.515625 -1.390625 Z M 38.375 -68.125 L 33.3125 -77.625 L 33.8125 -79.65625 L 36.71875 -79.78125 L 39.515625 -77.625 L 40.390625 -75.609375 L 41.671875 -73.703125 L 42.296875 -70.671875 L 41.796875 -67.75 L 40.140625 -66.734375 Z M 38.625 4.171875 L 42.046875 3.046875 L 49.515625 3.296875 L 53.1875 1.640625 L 54.453125 -1.765625 L 54.328125 -5.3125 L 54.828125 -7.859375 L 54.453125 -12.921875 L 54.703125 -15.453125 L 54.453125 -17.734375 L 54.578125 -22.796875 L 54.328125 -25.078125 L 54.578125 -27.609375 L 54.078125 -29.890625 L 54.203125 -32.671875 L 56.484375 -39.890625 L 59.640625 -43.8125 L 68.640625 -59.265625 L 70.40625 -61.421875 L 72.5625 -65.984375 L 74.46875 -68.125 L 75.734375 -70.03125 L 77.890625 -74.59375 L 79.53125 -77 L 81.5625 -79.03125 L 83.96875 -79.03125 L 84.34375 -76.359375 L 83.203125 -73.578125 L 82.0625 -71.296875 L 80.546875 -69.140625 L 79.65625 -67.125 L 77.890625 -65.09375 L 76.625 -62.5625 L 75.859375 -60.53125 L 74.078125 -58.515625 L 72.8125 -56.359375 L 71.9375 -54.328125 L 68.390625 -48.75 L 66.609375 -45.46875 L 65.34375 -43.6875 L 64.328125 -41.40625 L 62.8125 -39.390625 L 61.671875 -37.109375 L 60.28125 -33.5625 L 59.640625 -30.015625 L 59.515625 -25.078125 L 59.78125 -20.140625 L 59.515625 -17.859375 L 59.265625 -0.375 L 59.640625 4.5625 L 58.375 6.96875 L 55.84375 8.234375 L 41.03125 8.109375 L 38.25 6.96875 Z M 38.625 4.171875 "/></g></g></g><g fill="#000000" fill-opacity="1"><g transform="translate(456.695873, 448.499997)"><g/></g></g><g fill="#000000" fill-opacity="1"><g transform="translate(491.016565, 448.499997)"><g><path d="M 9.5 -3.921875 L 9.75 -8.734375 L 9.375 -18.875 L 9.625 -21.40625 L 9.375 -31.53125 L 9.75 -36.46875 L 9.375 -39.125 L 9.75 -41.53125 L 9.375 -46.984375 L 9.75 -51.796875 L 9.25 -61.921875 L 9.625 -64.453125 L 9.25 -67 L 9.625 -69.78125 L 9.375 -74.59375 L 9.5 -77.125 L 9.25 -79.65625 L 9.25 -84.84375 L 11.140625 -87.25 L 13.421875 -88.640625 L 16.078125 -88.515625 L 18.359375 -88.640625 L 20.890625 -88.390625 L 29 -88.640625 L 31.53125 -88.390625 L 49.515625 -88.265625 L 54.703125 -87.25 L 61.671875 -84.96875 L 64.203125 -83.703125 L 68.890625 -80.796875 L 72.4375 -77.375 L 74.59375 -75.734375 L 77.890625 -71.8125 L 78.890625 -69.65625 L 81.8125 -65.34375 L 83.703125 -60.28125 L 84.34375 -58 L 84.59375 -55.34375 L 86.5 -48.125 L 85.984375 -40.015625 L 86.109375 -37.859375 L 85.484375 -35.203125 L 85.109375 -32.546875 L 84.21875 -30.265625 L 83.703125 -27.734375 L 82.4375 -25.328125 L 81.8125 -22.921875 L 77.890625 -16.59375 L 72.8125 -10.765625 L 62.046875 -3.546875 L 54.703125 -1.265625 L 46.609375 -0.125 L 23.8125 0 L 21.15625 0.375 L 18.609375 0.375 L 15.953125 0 L 13.046875 0 L 11.015625 -1.140625 Z M 36.34375 -20.390625 L 46.859375 -20.890625 L 51.421875 -22.15625 L 53.953125 -23.421875 L 55.96875 -24.6875 L 57.5 -26.71875 L 59.140625 -28.5 L 60.78125 -30.78125 L 62.6875 -35.328125 L 63.453125 -37.734375 L 64.078125 -43.9375 L 63.703125 -47.875 L 62.1875 -55.34375 L 60.53125 -57.375 L 59.140625 -59.78125 L 55.96875 -63.3125 L 51.671875 -66.109375 L 46.609375 -67.625 L 42.796875 -67.875 L 40.140625 -67.75 L 37.484375 -67.875 L 33.8125 -66.484375 L 32.296875 -64.203125 L 32.296875 -31.65625 L 31.90625 -29.125 L 32.421875 -26.84375 L 32.171875 -24.3125 L 33.3125 -21.53125 Z M 51.15625 -59.78125 L 45.84375 -59.515625 L 41.796875 -58.375 L 40.140625 -55.84375 L 40.53125 -50.65625 L 40.390625 -45.34375 L 40.65625 -42.796875 L 40.65625 -37.734375 L 40.265625 -35.453125 L 40.390625 -30.015625 L 40.140625 -27.609375 L 38.875 -24.828125 L 36.46875 -24.953125 L 35.59375 -28.875 L 35.078125 -32.671875 L 35.453125 -58.125 L 35.203125 -60.65625 L 36.859375 -63.453125 L 39.765625 -64.59375 L 45.71875 -64.59375 L 50.015625 -63.453125 L 52.8125 -61.921875 L 53.703125 -60.28125 Z M 90.296875 -55.34375 L 91.8125 -50.53125 L 92.328125 -47.75 L 93.078125 -45.34375 L 93.328125 -31.90625 L 92.578125 -27.09375 L 91.5625 -24.4375 L 91.4375 -22.15625 L 90.046875 -20.015625 L 89.03125 -17.734375 L 88.390625 -15.328125 L 85.234375 -11.265625 L 83.96875 -9.125 L 80.546875 -4.9375 L 78.765625 -3.421875 L 70.796875 2.28125 L 63.578125 5.703125 L 61.171875 6.203125 L 56.234375 7.71875 L 31.03125 8.609375 L 28.75 8.359375 L 26.59375 8.609375 L 24.0625 8.359375 L 21.28125 8.609375 L 19 6.96875 L 19.25 4.5625 L 23.296875 3.171875 L 38.375 3.046875 L 42.296875 3.421875 L 55.21875 2.65625 L 59.90625 1.390625 L 61.921875 0.375 L 64.453125 -0.375 L 68.890625 -2.65625 L 76.875 -8.859375 L 78.390625 -11.015625 L 79.90625 -12.65625 L 81.046875 -14.6875 L 84.09375 -19 L 85.359375 -21.53125 L 86.625 -24.828125 L 88.265625 -30.90625 L 88.515625 -33.3125 L 89.28125 -35.71875 L 89.40625 -43.1875 L 88.78125 -48.25 L 89.03125 -53.0625 L 88.515625 -55.21875 L 89.03125 -56.734375 Z M 90.296875 -55.34375 "/></g></g></g><g fill="#000000" fill-opacity="1"><g transform="translate(583.087209, 448.499997)"><g><path d="M 9.125 -3.671875 L 9.625 -6.203125 L 9.75 -8.734375 L 9.5 -13.671875 L 9.5 -16.203125 L 9.25 -19.125 L 9.625 -21.40625 L 9.5 -23.8125 L 9.75 -26.59375 L 9.375 -29.25 L 9.625 -34.3125 L 9.25 -39.265625 L 9.625 -41.921875 L 9.625 -64.59375 L 9.375 -66.859375 L 9.625 -69.53125 L 9.125 -75.984375 L 9.625 -79.65625 L 9.375 -84.71875 L 10.640625 -87.515625 L 14.3125 -88.390625 L 30.90625 -88.78125 L 33.1875 -88.515625 L 38.125 -88.640625 L 40.65625 -88.390625 L 46.21875 -88.640625 L 48.75 -88.265625 L 51.03125 -88.515625 L 61.171875 -88.390625 L 63.828125 -87.25 L 65.09375 -84.71875 L 64.71875 -82.3125 L 64.59375 -79.53125 L 64.96875 -77.125 L 65.21875 -71.9375 L 63.828125 -69.65625 L 61.171875 -68.265625 L 36.859375 -68.125 L 32.921875 -67 L 31.65625 -63.3125 L 31.90625 -59.390625 L 33.4375 -57.109375 L 35.59375 -55.71875 L 45.59375 -55.84375 L 48.5 -55.59375 L 51.15625 -55.59375 L 53.703125 -55.84375 L 58.765625 -55.71875 L 60.921875 -54.328125 L 62.046875 -51.921875 L 62.3125 -49.390625 L 62.046875 -39.390625 L 60.78125 -36.984375 L 58.25 -35.59375 L 55.96875 -35.453125 L 53.3125 -35.71875 L 49.890625 -35.453125 L 43.1875 -35.84375 L 40.65625 -35.59375 L 35.71875 -35.59375 L 33.4375 -34.1875 L 32.296875 -31.53125 L 32.171875 -25.328125 L 33.3125 -21.40625 L 35.96875 -19.875 L 38.75 -20.140625 L 41.53125 -19.875 L 43.9375 -20.265625 L 60.65625 -20.015625 L 64.453125 -18.75 L 66.109375 -16.203125 L 65.859375 -13.796875 L 65.984375 -5.953125 L 65.71875 -3.546875 L 64.59375 -1.140625 L 61.921875 0.125 L 59.515625 0.375 L 51.796875 -0.125 L 44.078125 0.25 L 41.796875 -0.125 L 13.171875 0.125 L 10.765625 -1.265625 Z M 36.46875 -63.578125 L 38.625 -65.09375 L 41.15625 -65.21875 L 46.734375 -64.96875 L 49.015625 -65.21875 L 61.671875 -64.96875 L 64.078125 -65.21875 L 67 -66.484375 L 68.125 -69.015625 L 68 -76.359375 L 69.265625 -78.890625 L 71.9375 -79.15625 L 73.203125 -76.75 L 73.078125 -71.296875 L 73.453125 -69.015625 L 72.9375 -63.828125 L 71.8125 -61.546875 L 68.390625 -60.15625 L 64.328125 -59.90625 L 55.34375 -60.28125 L 51.546875 -59.90625 L 41.671875 -59.90625 L 39.265625 -59.015625 L 36.71875 -60.53125 Z M 35.203125 -26.46875 L 35.59375 -28.875 L 36.59375 -31.28125 L 38.75 -32.671875 L 43.8125 -32.671875 L 46.484375 -32.296875 L 61.796875 -32.421875 L 64.453125 -33.6875 L 65.34375 -35.96875 L 65.34375 -38.75 L 65.59375 -41.03125 L 65.34375 -43.6875 L 66.609375 -46.09375 L 69.265625 -46.21875 L 70.28125 -42.296875 L 70.796875 -36.09375 L 70.15625 -31.28125 L 69.015625 -28.625 L 66.609375 -27.484375 L 61.671875 -27.359375 L 58.765625 -27.609375 L 56.234375 -27.484375 L 54.328125 -27.234375 L 51.546875 -27.234375 L 49.265625 -27.484375 L 45.34375 -27.359375 L 41.40625 -26.46875 L 39 -24.4375 L 36.34375 -24.1875 Z M 19 4.5625 L 21.53125 3.421875 L 28.109375 3.046875 L 34.578125 3.421875 L 36.71875 3.171875 L 39.515625 3.171875 L 41.921875 3.421875 L 65.59375 3.171875 L 68 2.15625 L 69.015625 -0.640625 L 69.40625 -3.296875 L 69.140625 -5.3125 L 69.53125 -8.109375 L 70.40625 -10.515625 L 72.8125 -10.390625 L 74.21875 -8.109375 L 74.46875 4.4375 L 72.8125 7.21875 L 70.796875 8.609375 L 52.5625 8.609375 L 49.765625 8.234375 L 34.3125 8.359375 L 31.90625 8.609375 L 24.1875 8.234375 L 21.78125 8.359375 L 19.25 6.96875 Z M 19 4.5625 "/></g></g></g><g fill="#000000" fill-opacity="1"><g transform="translate(655.654558, 448.499997)"><g><path d="M 35.71875 -2.28125 L 32.296875 -9.25 L 31.65625 -11.90625 L 30.390625 -13.796875 L 27.09375 -21.15625 L 26.34375 -23.5625 L 24.1875 -28.109375 L 23.5625 -30.265625 L 15.203125 -49.140625 L 13.9375 -51.15625 L 10.125 -60.40625 L 8.859375 -62.6875 L 6.84375 -67.625 L 5.453125 -70.03125 L 4.6875 -72.3125 L 3.546875 -74.59375 L 1.640625 -79.40625 L 0.5 -81.6875 L 0 -84.71875 L 0.25 -87.515625 L 2.90625 -88.640625 L 5.578125 -88.78125 L 7.859375 -88.515625 L 10 -88.78125 L 17.09375 -88.390625 L 20.015625 -87.375 L 22.15625 -84.84375 L 23.296875 -82.828125 L 24.1875 -80.546875 L 25.453125 -78.140625 L 25.828125 -75.734375 L 30.265625 -66.609375 L 30.78125 -64.078125 L 31.65625 -61.796875 L 32.796875 -59.78125 L 34.3125 -54.703125 L 35.71875 -52.421875 L 36.59375 -50.40625 L 37.359375 -47.875 L 38.375 -45.59375 L 40.015625 -40.78125 L 41.03125 -38.5 L 42.546875 -38.75 L 44.078125 -41.03125 L 44.703125 -43.3125 L 45.96875 -45.71875 L 61.046875 -82.828125 L 61.671875 -85.109375 L 63.953125 -87.515625 L 66.859375 -88.515625 L 81.8125 -88.515625 L 83.96875 -87.765625 L 84.71875 -84.59375 L 83.453125 -81.5625 L 82.953125 -79.40625 L 81.6875 -77 L 80.796875 -74.46875 L 79.40625 -72.3125 L 78.765625 -70.03125 L 76.875 -65.09375 L 75.21875 -63.1875 L 74.59375 -60.78125 L 72.8125 -58.515625 L 72.1875 -56.109375 L 71.546875 -53.953125 L 70.15625 -51.421875 L 68.765625 -46.609375 L 66.109375 -42.046875 L 64.59375 -37.109375 L 56.984375 -20.890625 L 56.234375 -18.609375 L 54.203125 -14.0625 L 52.9375 -11.90625 L 51.796875 -9.5 L 49.640625 -4.5625 L 48.890625 -2.15625 L 46.734375 -0.125 L 43.3125 1.390625 L 40.78125 1.140625 L 37.734375 0 Z M 40.390625 -49.265625 L 35.84375 -61.171875 L 34.3125 -63.703125 L 33.6875 -66.109375 L 31.78125 -70.796875 L 31.15625 -72.9375 L 29 -78.015625 L 29.5 -80.296875 L 32.046875 -80.421875 L 34.0625 -77.75 L 36.59375 -72.9375 L 37.234375 -70.28125 L 38.625 -68.265625 L 42.671875 -58.25 L 43.8125 -52.421875 L 43.1875 -49.015625 L 42.171875 -48 Z M 91.3125 -77.75 L 90.671875 -74.71875 L 87.515625 -67.75 L 86.25 -65.59375 L 85.484375 -62.9375 L 77.125 -44.703125 L 76.625 -42.421875 L 65.09375 -17.34375 L 64.328125 -14.9375 L 62.9375 -12.53125 L 61.421875 -7.859375 L 59.140625 -3.421875 L 58.25 -0.890625 L 55.71875 3.671875 L 54.96875 5.953125 L 52.6875 8.359375 L 49.265625 9.5 L 45.84375 7.984375 L 44.453125 5.453125 L 49.765625 3.046875 L 51.796875 0.765625 L 52.5625 -1.515625 L 53.828125 -3.921875 L 54.703125 -6.078125 L 57.875 -11.90625 L 59.140625 -15.453125 L 59.640625 -17.859375 L 61.171875 -20.140625 L 65.21875 -29.5 L 65.859375 -31.65625 L 67.875 -36.34375 L 69.40625 -38.75 L 70.40625 -41.03125 L 71.171875 -43.4375 L 72.8125 -45.96875 L 74.078125 -50.28125 L 86.75 -78.265625 L 88.515625 -80.421875 L 91.1875 -80.421875 Z M 91.3125 -77.75 "/></g></g></g></svg>